<?xml version="1.0" encoding="utf-8"?>
<!-- Generator: Adobe Illustrator 26.5.1, SVG Export Plug-In . SVG Version: 6.00 Build 0)  -->
<svg version="1.1" xmlns="http://www.w3.org/2000/svg" xmlns:xlink="http://www.w3.org/1999/xlink" x="0px" y="0px"
	 viewBox="0 0 1000 700" style="enable-background:new 0 0 1000 700;" xml:space="preserve">
<style type="text/css">
	.st0{clip-path:url(#SVGID_00000105397611815546391810000015803507194892161206_);fill:#D0DBEA;}
	.st1{fill:#364422;}
	.st2{fill:none;stroke:#364422;stroke-width:3;stroke-miterlimit:10;}
	.st3{fill:#DF4A12;}
	.st4{fill:none;stroke:#DF4A12;stroke-width:3;stroke-miterlimit:10;}
	.st5{fill:none;stroke:#ACAFB2;stroke-width:3;stroke-miterlimit:10;}
	.st6{fill:#354422;}
</style>
<g id="Layer_1">
	<g>
		<defs>
			<polygon id="SVGID_1_" points="989.96,45.85 828.77,529.33 662.09,555.51 498.15,581.54 334.22,607.75 170.42,634.4 6.35,652.78 
				989.96,652.83 			"/>
		</defs>
		<clipPath id="SVGID_00000111887713590257957030000014744625952657672378_">
			<use xlink:href="#SVGID_1_"  style="overflow:visible;"/>
		</clipPath>
		<path style="clip-path:url(#SVGID_00000111887713590257957030000014744625952657672378_);fill:#D0DBEA;" d="M990.22,653.43h-0.52
			V27.74h0.52V653.43z M981.94,27.74h-0.52v625.69h0.52V27.74z M973.67,27.74h-0.52v625.69h0.52V27.74z M965.39,27.74h-0.52v625.69
			h0.52V27.74z M957.11,27.74h-0.52v625.69h0.52V27.74z M948.84,27.74h-0.52v625.69h0.52V27.74z M940.56,27.74h-0.52v625.69h0.52
			V27.74z M932.29,27.74h-0.52v625.69h0.52V27.74z M924.01,27.74h-0.52v625.69h0.52V27.74z M915.74,27.74h-0.52v625.69h0.52V27.74z
			 M907.46,27.74h-0.52v625.69h0.52V27.74z M899.19,27.74h-0.52v625.69h0.52V27.74z M890.91,27.74h-0.52v625.69h0.52V27.74z
			 M882.63,27.74h-0.52v625.69h0.52V27.74z M874.36,27.74h-0.52v625.69h0.52V27.74z M866.08,27.74h-0.52v625.69h0.52V27.74z
			 M857.81,27.74h-0.52v625.69h0.52V27.74z M849.53,27.74h-0.52v625.69h0.52V27.74z M841.26,27.74h-0.52v625.69h0.52V27.74z
			 M832.98,27.74h-0.52v625.69h0.52V27.74z M824.7,27.74h-0.52v625.69h0.52V27.74z M816.43,27.74h-0.52v625.69h0.52V27.74z
			 M808.15,27.74h-0.52v625.69h0.52V27.74z M799.88,27.74h-0.52v625.69h0.52V27.74z M791.6,27.74h-0.52v625.69h0.52V27.74z
			 M783.33,27.74h-0.52v625.69h0.52V27.74z M775.05,27.74h-0.52v625.69h0.52V27.74z M766.78,27.74h-0.52v625.69h0.52V27.74z
			 M758.5,27.74h-0.52v625.69h0.52V27.74z M750.22,27.74h-0.52v625.69h0.52V27.74z M741.95,27.74h-0.52v625.69h0.52V27.74z
			 M733.67,27.74h-0.52v625.69h0.52V27.74z M725.4,27.74h-0.52v625.69h0.52V27.74z M717.12,27.74h-0.52v625.69h0.52V27.74z
			 M708.85,27.74h-0.52v625.69h0.52V27.74z M700.57,27.74h-0.52v625.69h0.52V27.74z M692.3,27.74h-0.52v625.69h0.52V27.74z
			 M684.02,27.74h-0.52v625.69h0.52V27.74z M675.74,27.74h-0.52v625.69h0.52V27.74z M667.47,27.74h-0.52v625.69h0.52V27.74z
			 M659.19,27.74h-0.52v625.69h0.52V27.74z M650.92,27.74h-0.52v625.69h0.52V27.74z M642.64,27.74h-0.52v625.69h0.52V27.74z
			 M634.37,27.74h-0.52v625.69h0.52V27.74z M626.09,27.74h-0.52v625.69h0.52V27.74z M617.82,27.74h-0.52v625.69h0.52V27.74z
			 M609.54,27.74h-0.52v625.69h0.52V27.74z M601.26,27.74h-0.52v625.69h0.52V27.74z M592.99,27.74h-0.52v625.69h0.52V27.74z
			 M584.71,27.74h-0.52v625.69h0.52V27.74z M576.44,27.74h-0.52v625.69h0.52V27.74z M568.16,27.74h-0.52v625.69h0.52V27.74z
			 M559.89,27.74h-0.52v625.69h0.52V27.74z M551.61,27.74h-0.52v625.69h0.52V27.74z M543.33,27.74h-0.52v625.69h0.52V27.74z
			 M535.06,27.74h-0.52v625.69h0.52V27.74z M526.78,27.74h-0.52v625.69h0.52V27.74z M518.51,27.74h-0.52v625.69h0.52V27.74z
			 M510.23,27.74h-0.52v625.69h0.52V27.74z M501.96,27.74h-0.52v625.69h0.52V27.74z M493.68,27.74h-0.52v625.69h0.52V27.74z
			 M485.41,27.74h-0.52v625.69h0.52V27.74z M477.13,27.74h-0.52v625.69h0.52V27.74z M468.85,27.74h-0.52v625.69h0.52V27.74z
			 M460.58,27.74h-0.52v625.69h0.52V27.74z M452.3,27.74h-0.52v625.69h0.52V27.74z M444.03,27.74h-0.52v625.69h0.52V27.74z
			 M435.75,27.74h-0.52v625.69h0.52V27.74z M427.48,27.74h-0.52v625.69h0.52V27.74z M419.2,27.74h-0.52v625.69h0.52V27.74z
			 M410.93,27.74h-0.52v625.69h0.52V27.74z M402.65,27.74h-0.52v625.69h0.52V27.74z M394.37,27.74h-0.52v625.69h0.52V27.74z
			 M386.1,27.74h-0.52v625.69h0.52V27.74z M377.82,27.74h-0.52v625.69h0.52V27.74z M369.55,27.74h-0.52v625.69h0.52V27.74z
			 M361.27,27.74h-0.52v625.69h0.52V27.74z M353,27.74h-0.52v625.69H353V27.74z M344.72,27.74h-0.52v625.69h0.52V27.74z
			 M336.44,27.74h-0.52v625.69h0.52V27.74z M328.17,27.74h-0.52v625.69h0.52V27.74z M319.89,27.74h-0.52v625.69h0.52V27.74z
			 M311.62,27.74h-0.52v625.69h0.52V27.74z M303.34,27.74h-0.52v625.69h0.52V27.74z M295.07,27.74h-0.52v625.69h0.52V27.74z
			 M286.79,27.74h-0.52v625.69h0.52V27.74z M278.52,27.74H278v625.69h0.52V27.74z M270.24,27.74h-0.52v625.69h0.52V27.74z
			 M261.96,27.74h-0.52v625.69h0.52V27.74z M253.69,27.74h-0.52v625.69h0.52V27.74z M245.41,27.74h-0.52v625.69h0.52V27.74z
			 M237.14,27.74h-0.52v625.69h0.52V27.74z M228.86,27.74h-0.52v625.69h0.52V27.74z M220.59,27.74h-0.52v625.69h0.52V27.74z
			 M212.31,27.74h-0.52v625.69h0.52V27.74z M204.04,27.74h-0.52v625.69h0.52V27.74z M195.76,27.74h-0.52v625.69h0.52V27.74z
			 M187.48,27.74h-0.52v625.69h0.52V27.74z M179.21,27.74h-0.52v625.69h0.52V27.74z M170.93,27.74h-0.52v625.69h0.52V27.74z
			 M162.66,27.74h-0.52v625.69h0.52V27.74z M154.38,27.74h-0.52v625.69h0.52V27.74z M146.11,27.74h-0.52v625.69h0.52V27.74z
			 M137.83,27.74h-0.52v625.69h0.52V27.74z M129.55,27.74h-0.52v625.69h0.52V27.74z M121.28,27.74h-0.52v625.69h0.52V27.74z
			 M113,27.74h-0.52v625.69H113V27.74z M104.73,27.74h-0.52v625.69h0.52V27.74z M96.45,27.74h-0.52v625.69h0.52V27.74z M88.18,27.74
			h-0.52v625.69h0.52V27.74z M79.9,27.74h-0.52v625.69h0.52V27.74z M71.63,27.74h-0.52v625.69h0.52V27.74z M63.35,27.74h-0.52
			v625.69h0.52V27.74z M55.07,27.74h-0.52v625.69h0.52V27.74z M46.8,27.74h-0.52v625.69h0.52V27.74z M38.52,27.74h-0.52v625.69h0.52
			V27.74z M30.25,27.74h-0.52v625.69h0.52V27.74z M24.04,27.74h-0.52v625.69h0.52V27.74z"/>
	</g>
	<circle class="st1" cx="107.03" cy="41.22" r="10.44"/>
	<g>
		<path d="M200.12,42.12c-0.21-3.01-0.45-6.71-0.42-8.89h-0.09c-0.72,2.18-1.55,4.5-2.68,7.48l-4.23,10.94h-0.98l-3.97-10.67
			c-1.13-3.13-2-5.55-2.59-7.75h-0.09c-0.03,2.36-0.18,5.84-0.42,9.18l-0.63,9.24h-1.4l1.46-20.1h1.64l4.32,11.57
			c0.92,2.56,1.64,4.59,2.21,6.53h0.06c0.54-1.85,1.25-3.82,2.27-6.5l4.47-11.6h1.7l1.37,20.1h-1.4L200.12,42.12z"/>
		<path d="M210.71,51.66v-8.71l-6.41-11.39h1.61l3.31,5.99c0.83,1.58,1.58,2.86,2.27,4.32h0.06c0.63-1.37,1.43-2.77,2.33-4.35
			l3.43-5.96h1.61l-6.8,11.42v8.68H210.71z"/>
		<path d="M234.83,50.76c-1.01,0.42-3.1,1.1-5.84,1.1c-2.65,0-5.1-0.69-7.13-2.65c-1.64-1.61-2.74-4.29-2.74-7.54
			c0-5.58,3.64-10.32,10.47-10.32c2.18,0,3.91,0.54,4.68,0.89l-0.45,1.19c-1.04-0.51-2.39-0.86-4.29-0.86
			c-5.55,0-8.94,3.58-8.94,9.03c0,5.67,3.34,9.03,8.65,9.03c2.09,0,3.46-0.3,4.2-0.69v-7.1h-4.68V41.7h6.08V50.76z"/>
		<path d="M241.42,44.62l-2.47,7.04h-1.46l7.27-20.1h1.37l7.25,20.1h-1.46l-2.53-7.04H241.42z M248.93,43.43l-2.44-6.71
			c-0.48-1.4-0.75-2.42-1.04-3.55h-0.06c-0.3,1.16-0.63,2.21-1.04,3.49l-2.47,6.77H248.93z"/>
	</g>
	<g>
		<path d="M183.19,95.05v-20.1h1.34l7.84,11.87c1.61,2.5,2.77,4.38,3.76,6.32l0.06-0.03c-0.21-2.71-0.24-5.01-0.24-8.17v-9.99h1.4
			v20.1h-1.34l-7.66-11.69c-1.49-2.33-2.86-4.44-3.91-6.5l-0.06,0.03c0.15,2.47,0.18,4.65,0.18,7.99v10.17H183.19z"/>
		<path d="M205.49,95.05l-5.28-20.1h1.43l2.92,11.33c0.69,2.59,1.28,5.01,1.67,6.89h0.09c0.33-1.88,1.04-4.26,1.82-6.89l3.31-11.33
			h1.37l2.98,11.24c0.63,2.45,1.31,4.95,1.61,6.98h0.09c0.45-2.18,1.07-4.35,1.82-6.92l3.31-11.3h1.46l-6.02,20.1h-1.37l-3.04-11.57
			c-0.78-2.95-1.25-4.95-1.55-6.83h-0.06c-0.33,1.88-0.86,3.85-1.79,6.8l-3.4,11.6H205.49z"/>
		<path d="M226.66,74.96h1.4v18.9h8.97v1.19h-10.38V74.96z"/>
		<path d="M246.55,95.05v-20.1h1.34l7.84,11.87c1.61,2.5,2.77,4.38,3.76,6.32l0.06-0.03c-0.21-2.71-0.24-5.01-0.24-8.17v-9.99h1.4
			v20.1h-1.34l-7.66-11.69c-1.49-2.33-2.86-4.44-3.91-6.5l-0.06,0.03c0.15,2.47,0.18,4.65,0.18,7.99v10.17H246.55z"/>
		<path d="M265.75,87.75c0,4.59,2.5,6.38,5.46,6.38c2.09,0,3.16-0.42,3.97-0.81l0.36,1.13c-0.54,0.3-2,0.89-4.5,0.89
			c-4.11,0-6.68-2.98-6.68-7.19c0-4.77,2.74-7.75,6.44-7.75c4.68,0,5.58,4.41,5.58,6.47c0,0.39,0,0.63-0.06,0.86H265.75z
			 M274.87,86.61c0.03-2-0.81-5.04-4.26-5.04c-3.16,0-4.53,2.83-4.77,5.04H274.87z"/>
		<path d="M279.85,80.74l2.38,8.14c0.51,1.67,0.92,3.1,1.22,4.47h0.09c0.36-1.31,0.83-2.83,1.43-4.47l2.86-8.14h1.34l2.74,8.08
			c0.57,1.73,1.01,3.19,1.4,4.53h0.06c0.3-1.34,0.75-2.77,1.28-4.5l2.56-8.11h1.46l-4.77,14.31h-1.25l-2.68-7.96
			c-0.63-1.73-1.1-3.28-1.49-4.89h-0.06c-0.42,1.7-0.95,3.28-1.55,4.92l-2.86,7.93h-1.25l-4.38-14.31H279.85z"/>
		<path d="M308.21,74.96h9.93v1.19h-8.53v7.99h7.81v1.19h-7.81v9.72h-1.4V74.96z"/>
		<path d="M321.06,85.03c0-1.43-0.06-2.92-0.12-4.29h1.31l0.06,2.89h0.06c0.63-1.79,2.12-3.22,4.08-3.22c0.18,0,0.39,0.03,0.57,0.06
			v1.37c-0.21-0.06-0.42-0.06-0.69-0.06c-1.97,0-3.37,1.7-3.76,4c-0.06,0.42-0.12,0.89-0.12,1.37v7.9h-1.4V85.03z"/>
		<path d="M341.75,87.75c0,5.37-3.67,7.63-6.86,7.63c-3.7,0-6.56-2.89-6.56-7.36c0-4.92,3.22-7.6,6.77-7.6
			C339.07,80.41,341.75,83.36,341.75,87.75z M329.76,87.92c0,3.58,2.3,6.26,5.22,6.26c2.98,0,5.34-2.68,5.34-6.35
			c0-2.62-1.49-6.26-5.25-6.26C331.43,81.57,329.76,84.85,329.76,87.92z"/>
		<path d="M345.39,84.17c0-1.31-0.06-2.3-0.12-3.43h1.31l0.12,2.59h0.06c0.78-1.61,2.56-2.92,4.92-2.92c1.37,0,4.98,0.69,4.98,6.05
			v8.59h-1.4v-8.47c0-2.59-1.01-4.95-3.97-4.95c-2.03,0-3.73,1.43-4.29,3.28c-0.12,0.36-0.21,0.83-0.21,1.28v8.86h-1.4V84.17z"/>
		<path d="M363.34,76.59v4.14h4.08v1.13h-4.08v9.3c0,1.82,0.57,2.98,2.09,2.98c0.75,0,1.28-0.12,1.64-0.24l0.18,1.1
			c-0.48,0.18-1.13,0.33-2,0.33c-1.04,0-1.91-0.33-2.44-1.01c-0.66-0.75-0.89-1.94-0.89-3.4v-9.06h-2.42v-1.13h2.42v-3.7
			L363.34,76.59z"/>
		<path d="M372.43,76.65c0,0.66-0.45,1.22-1.19,1.22c-0.66,0-1.1-0.57-1.1-1.22c0-0.66,0.51-1.25,1.16-1.25
			C371.98,75.4,372.43,75.97,372.43,76.65z M370.58,95.05V80.74h1.4v14.31H370.58z"/>
		<path d="M377.02,87.75c0,4.59,2.5,6.38,5.46,6.38c2.09,0,3.16-0.42,3.97-0.81l0.36,1.13c-0.54,0.3-2,0.89-4.5,0.89
			c-4.11,0-6.68-2.98-6.68-7.19c0-4.77,2.74-7.75,6.44-7.75c4.68,0,5.58,4.41,5.58,6.47c0,0.39,0,0.63-0.06,0.86H377.02z
			 M386.15,86.61c0.03-2-0.81-5.04-4.26-5.04c-3.16,0-4.53,2.83-4.77,5.04H386.15z"/>
		<path d="M391.27,85.03c0-1.43-0.06-2.92-0.12-4.29h1.31l0.06,2.89h0.06c0.63-1.79,2.12-3.22,4.08-3.22c0.18,0,0.39,0.03,0.57,0.06
			v1.37c-0.21-0.06-0.42-0.06-0.69-0.06c-1.97,0-3.37,1.7-3.76,4c-0.06,0.42-0.12,0.89-0.12,1.37v7.9h-1.4V85.03z"/>
		<path d="M399.47,93.17c0.77,0.48,1.94,0.98,3.22,0.98c2.27,0,3.34-1.22,3.34-2.71c0-1.58-0.95-2.42-3.01-3.25
			c-2.36-0.89-3.64-2.18-3.64-3.91c0-2.06,1.61-3.88,4.41-3.88c1.31,0,2.42,0.39,3.16,0.89l-0.57,1.16
			c-0.48-0.36-1.4-0.86-2.83-0.86c-1.82,0-2.77,1.16-2.77,2.47c0,1.49,1.01,2.15,2.95,2.95c2.33,0.89,3.7,2.06,3.7,4.23
			c0,2.44-1.91,4.08-4.83,4.08c-1.4,0-2.68-0.39-3.64-0.98L399.47,93.17z"/>
	</g>
	<line class="st2" x1="56.66" y1="41.22" x2="157.4" y2="41.22"/>
	<circle class="st3" cx="107.03" cy="84.61" r="10.44"/>
	<line class="st4" x1="56.66" y1="84.61" x2="157.4" y2="84.61"/>
	<line class="st2" x1="6.35" y1="652.78" x2="989.96" y2="370.21"/>
	<polyline class="st4" points="6.35,652.78 826.02,522.54 989.96,35.66 	"/>
	<polyline class="st5" points="989.96,653.43 6.35,653.43 6.35,10.13 	"/>
</g>
<g id="Layer_2">
	<circle class="st1" cx="989.96" cy="370.15" r="4.83"/>
	<circle class="st1" cx="826.02" cy="416.76" r="4.83"/>
	<circle class="st1" cx="662.09" cy="463.8" r="4.83"/>
	<circle class="st1" cx="498.15" cy="511.18" r="4.83"/>
	<circle class="st1" cx="334.22" cy="558.43" r="4.83"/>
	<circle class="st1" cx="170.28" cy="604.89" r="4.83"/>
	<g>
		<path class="st3" d="M508.43,600.19v-2.52c-1.45-0.03-2.95-0.47-3.82-1.1l0.6-1.67c0.9,0.6,2.2,1.08,3.6,1.08
			c1.78,0,2.97-1.03,2.97-2.45c0-1.38-0.97-2.22-2.82-2.97c-2.55-1-4.12-2.15-4.12-4.32c0-2.07,1.47-3.65,3.77-4.02v-2.52h1.55v2.42
			c1.5,0.05,2.52,0.45,3.25,0.88l-0.62,1.65c-0.53-0.3-1.55-0.85-3.15-0.85c-1.92,0-2.65,1.15-2.65,2.15c0,1.3,0.92,1.95,3.1,2.85
			c2.57,1.05,3.87,2.35,3.87,4.57c0,1.97-1.38,3.82-3.95,4.25v2.6H508.43z"/>
		<path class="st3" d="M521.71,583.84h-0.05l-2.82,1.52l-0.42-1.67l3.55-1.9h1.88v16.25h-2.12V583.84z"/>
		<path class="st3" d="M540.55,589.74c0,5.52-2.05,8.57-5.65,8.57c-3.17,0-5.32-2.97-5.37-8.35c0-5.45,2.35-8.45,5.65-8.45
			C538.61,581.52,540.55,584.57,540.55,589.74z M531.73,589.99c0,4.22,1.3,6.62,3.3,6.62c2.25,0,3.32-2.62,3.32-6.77
			c0-4-1.02-6.62-3.3-6.62C533.13,583.22,531.73,585.57,531.73,589.99z"/>
		<path class="st3" d="M551.85,583.34c-0.45-0.03-1.02,0-1.65,0.1c-3.45,0.58-5.27,3.1-5.65,5.77h0.07
			c0.78-1.02,2.12-1.87,3.92-1.87c2.87,0,4.9,2.07,4.9,5.25c0,2.97-2.02,5.72-5.4,5.72c-3.47,0-5.75-2.7-5.75-6.92
			c0-3.2,1.15-5.72,2.75-7.32c1.35-1.32,3.15-2.15,5.2-2.4c0.65-0.1,1.2-0.12,1.6-0.12V583.34z M551.23,592.72
			c0-2.33-1.32-3.72-3.35-3.72c-1.33,0-2.55,0.83-3.15,2c-0.15,0.25-0.25,0.57-0.25,0.97c0.05,2.67,1.27,4.65,3.57,4.65
			C549.96,596.62,551.23,595.04,551.23,592.72z"/>
		<path class="st3" d="M554.68,601.11c0.55-1.47,1.23-4.15,1.5-5.97l2.45-0.25c-0.57,2.12-1.67,4.9-2.37,6.07L554.68,601.11z"/>
		<path class="st3" d="M570.28,583.64h-6.2l-0.62,4.17c0.38-0.05,0.72-0.1,1.32-0.1c1.25,0,2.5,0.27,3.5,0.88
			c1.27,0.72,2.32,2.12,2.32,4.17c0,3.17-2.52,5.55-6.05,5.55c-1.77,0-3.27-0.5-4.05-1l0.55-1.67c0.67,0.4,2,0.9,3.47,0.9
			c2.07,0,3.85-1.35,3.85-3.52c-0.03-2.1-1.42-3.6-4.67-3.6c-0.92,0-1.65,0.1-2.25,0.17l1.05-7.8h7.77V583.64z"/>
		<path class="st3" d="M573.21,593.92c0-2.05,1.22-3.5,3.22-4.35l-0.03-0.08c-1.8-0.85-2.57-2.25-2.57-3.65
			c0-2.57,2.17-4.32,5.02-4.32c3.15,0,4.72,1.97,4.72,4c0,1.37-0.67,2.85-2.67,3.8v0.08c2.02,0.8,3.27,2.22,3.27,4.2
			c0,2.82-2.42,4.72-5.52,4.72C575.26,598.32,573.21,596.29,573.21,593.92z M581.95,593.82c0-1.97-1.38-2.92-3.57-3.55
			c-1.9,0.55-2.92,1.8-2.92,3.35c-0.07,1.65,1.17,3.1,3.25,3.1C580.68,596.72,581.95,595.49,581.95,593.82z M575.91,585.69
			c0,1.62,1.22,2.5,3.1,3c1.4-0.47,2.47-1.47,2.47-2.95c0-1.3-0.77-2.65-2.75-2.65C576.91,583.09,575.91,584.29,575.91,585.69z"/>
		<path class="st3" d="M593.03,598.04v-4.42h-7.55v-1.45l7.25-10.37h2.38v10.1h2.27v1.72h-2.27v4.42H593.03z M593.03,591.89v-5.42
			c0-0.85,0.03-1.7,0.08-2.55h-0.08c-0.5,0.95-0.9,1.65-1.35,2.4l-3.97,5.52v0.05H593.03z"/>
	</g>
	<g>
		<path class="st3" d="M672.36,574.75v-2.52c-1.45-0.03-2.95-0.47-3.82-1.1l0.6-1.67c0.9,0.6,2.2,1.08,3.6,1.08
			c1.78,0,2.97-1.03,2.97-2.45c0-1.38-0.97-2.22-2.82-2.97c-2.55-1-4.12-2.15-4.12-4.32c0-2.07,1.47-3.65,3.77-4.02v-2.52h1.55v2.42
			c1.5,0.05,2.52,0.45,3.25,0.88l-0.62,1.65c-0.53-0.3-1.55-0.85-3.15-0.85c-1.92,0-2.65,1.15-2.65,2.15c0,1.3,0.92,1.95,3.1,2.85
			c2.57,1.05,3.87,2.35,3.87,4.57c0,1.97-1.38,3.82-3.95,4.25v2.6H672.36z"/>
		<path class="st3" d="M685.64,558.41h-0.05l-2.82,1.52l-0.42-1.67l3.55-1.9h1.88v16.25h-2.12V558.41z"/>
		<path class="st3" d="M704.49,564.31c0,5.52-2.05,8.57-5.65,8.57c-3.17,0-5.32-2.97-5.37-8.35c0-5.45,2.35-8.45,5.65-8.45
			C702.54,556.08,704.49,559.13,704.49,564.31z M695.66,564.56c0,4.22,1.3,6.62,3.3,6.62c2.25,0,3.32-2.62,3.32-6.77
			c0-4-1.02-6.62-3.3-6.62C697.06,557.78,695.66,560.13,695.66,564.56z"/>
		<path class="st3" d="M706.31,568.48c0-2.05,1.22-3.5,3.22-4.35l-0.03-0.08c-1.8-0.85-2.57-2.25-2.57-3.65
			c0-2.57,2.17-4.32,5.02-4.32c3.15,0,4.72,1.97,4.72,4c0,1.37-0.67,2.85-2.67,3.8v0.08c2.02,0.8,3.27,2.22,3.27,4.2
			c0,2.82-2.42,4.72-5.52,4.72C708.36,572.88,706.31,570.86,706.31,568.48z M715.06,568.38c0-1.97-1.38-2.92-3.57-3.55
			c-1.9,0.55-2.92,1.8-2.92,3.35c-0.07,1.65,1.17,3.1,3.25,3.1C713.79,571.28,715.06,570.06,715.06,568.38z M709.01,560.26
			c0,1.62,1.22,2.5,3.1,3c1.4-0.47,2.47-1.47,2.47-2.95c0-1.3-0.77-2.65-2.75-2.65C710.01,557.66,709.01,558.86,709.01,560.26z"/>
		<path class="st3" d="M718.61,575.68c0.55-1.47,1.23-4.15,1.5-5.97l2.45-0.25c-0.57,2.12-1.67,4.9-2.37,6.07L718.61,575.68z"/>
		<path class="st3" d="M725.79,571.06c0.47,0.05,1.02,0,1.77-0.08c1.27-0.17,2.47-0.7,3.4-1.57c1.07-0.97,1.85-2.4,2.15-4.32h-0.08
			c-0.9,1.1-2.2,1.75-3.82,1.75c-2.92,0-4.8-2.2-4.8-4.97c0-3.07,2.22-5.77,5.55-5.77s5.37,2.7,5.37,6.85c0,3.57-1.2,6.07-2.8,7.62
			c-1.25,1.22-2.97,1.97-4.72,2.17c-0.8,0.12-1.5,0.15-2.02,0.12V571.06z M726.59,561.71c0,2.02,1.22,3.45,3.12,3.45
			c1.47,0,2.62-0.72,3.2-1.7c0.12-0.2,0.2-0.45,0.2-0.8c0-2.77-1.02-4.9-3.32-4.9C727.91,557.76,726.59,559.41,726.59,561.71z"/>
		<path class="st3" d="M737.34,572.61v-1.35l1.72-1.67c4.15-3.95,6.02-6.05,6.05-8.5c0-1.65-0.8-3.17-3.22-3.17
			c-1.47,0-2.7,0.75-3.45,1.38l-0.7-1.55c1.12-0.95,2.72-1.65,4.6-1.65c3.5,0,4.97,2.4,4.97,4.72c0,3-2.17,5.42-5.6,8.72l-1.3,1.2
			v0.05h7.3v1.82H737.34z"/>
		<path class="st3" d="M750.69,570.08c0.62,0.4,2.07,1.02,3.6,1.02c2.82,0,3.7-1.8,3.67-3.15c-0.03-2.27-2.07-3.25-4.2-3.25h-1.22
			v-1.65h1.22c1.6,0,3.62-0.82,3.62-2.75c0-1.3-0.82-2.45-2.85-2.45c-1.3,0-2.55,0.57-3.25,1.07l-0.57-1.6
			c0.85-0.62,2.5-1.25,4.25-1.25c3.2,0,4.65,1.9,4.65,3.87c0,1.67-1,3.1-3,3.82v0.05c2,0.4,3.62,1.9,3.62,4.17
			c0,2.6-2.02,4.87-5.92,4.87c-1.82,0-3.42-0.58-4.22-1.1L750.69,570.08z"/>
	</g>
	<g>
		<path class="st3" d="M838.37,546.41v-2.52c-1.45-0.03-2.95-0.47-3.82-1.1l0.6-1.67c0.9,0.6,2.2,1.08,3.6,1.08
			c1.77,0,2.97-1.03,2.97-2.45c0-1.38-0.97-2.22-2.82-2.97c-2.55-1-4.12-2.15-4.12-4.32c0-2.07,1.47-3.65,3.77-4.02v-2.52h1.55v2.42
			c1.5,0.05,2.52,0.45,3.25,0.88l-0.62,1.65c-0.53-0.3-1.55-0.85-3.15-0.85c-1.92,0-2.65,1.15-2.65,2.15c0,1.3,0.92,1.95,3.1,2.85
			c2.57,1.05,3.87,2.35,3.87,4.57c0,1.97-1.38,3.82-3.95,4.25v2.6H838.37z"/>
		<path class="st3" d="M851.64,530.06h-0.05l-2.82,1.52l-0.42-1.67l3.55-1.9h1.88v16.25h-2.12V530.06z"/>
		<path class="st3" d="M864.47,530.06h-0.05l-2.82,1.52l-0.42-1.67l3.55-1.9h1.88v16.25h-2.12V530.06z"/>
		<path class="st3" d="M877.29,530.06h-0.05l-2.82,1.52l-0.42-1.67l3.55-1.9h1.88v16.25h-2.12V530.06z"/>
		<path class="st3" d="M884.62,547.33c0.55-1.47,1.22-4.15,1.5-5.97l2.45-0.25c-0.57,2.12-1.67,4.9-2.37,6.07L884.62,547.33z"/>
		<path class="st3" d="M890.52,544.26v-1.35l1.72-1.67c4.15-3.95,6.02-6.05,6.05-8.5c0-1.65-0.8-3.17-3.22-3.17
			c-1.47,0-2.7,0.75-3.45,1.38l-0.7-1.55c1.12-0.95,2.72-1.65,4.6-1.65c3.5,0,4.97,2.4,4.97,4.72c0,3-2.17,5.42-5.6,8.72l-1.3,1.2
			v0.05h7.3v1.82H890.52z"/>
		<path class="st3" d="M913.89,528.01v1.45l-7.07,14.8h-2.27l7.05-14.37v-0.05h-7.95v-1.82H913.89z"/>
		<path class="st3" d="M926.97,535.96c0,5.52-2.05,8.57-5.65,8.57c-3.17,0-5.32-2.97-5.37-8.35c0-5.45,2.35-8.45,5.65-8.45
			C925.02,527.74,926.97,530.79,926.97,535.96z M918.14,536.21c0,4.22,1.3,6.62,3.3,6.62c2.25,0,3.32-2.62,3.32-6.77
			c0-4-1.02-6.62-3.3-6.62C919.54,529.44,918.14,531.79,918.14,536.21z"/>
	</g>
	<g>
		<path class="st3" d="M883.79,42.03v-2.42c-1.58-0.05-3.15-0.5-4.05-1.1l0.67-2.35c0.97,0.57,2.37,1.1,3.9,1.1
			c1.58,0,2.65-0.77,2.65-1.97c0-1.12-0.88-1.85-2.72-2.52c-2.62-0.95-4.32-2.15-4.32-4.47c0-2.15,1.5-3.8,4.02-4.25v-2.45h2.05
			v2.32c1.57,0.05,2.65,0.42,3.45,0.82l-0.67,2.3c-0.6-0.27-1.7-0.85-3.4-0.85c-1.75,0-2.37,0.9-2.37,1.75c0,1.02,0.9,1.6,3.02,2.45
			c2.8,1.05,4.05,2.4,4.05,4.62c0,2.12-1.47,4-4.22,4.45v2.57H883.79z"/>
		<path class="st3" d="M897.54,26.41h-0.05l-2.97,1.5l-0.52-2.32l3.95-1.95h2.57v16.25h-2.97V26.41z"/>
		<path class="st3" d="M916.02,25.81c-0.45,0-0.95,0-1.58,0.08c-3.4,0.4-5.05,2.5-5.45,4.75h0.08c0.8-0.92,2.02-1.57,3.65-1.57
			c2.8,0,4.97,2,4.97,5.3c0,3.1-2.27,5.8-5.72,5.8c-3.95,0-6.12-3-6.12-7c0-3.12,1.12-5.67,2.82-7.3c1.5-1.4,3.45-2.2,5.77-2.4
			c0.67-0.08,1.17-0.08,1.55-0.05L916.02,25.81z M914.57,34.53c0-1.87-1.02-3.22-2.82-3.22c-1.15,0-2.17,0.7-2.65,1.67
			c-0.12,0.25-0.2,0.55-0.2,0.98c0.05,2.15,1.08,3.9,3.05,3.9C913.54,37.86,914.57,36.48,914.57,34.53z"/>
		<path class="st3" d="M920.77,37.68c0.47,0.05,0.95,0.03,1.7-0.05c1.2-0.1,2.4-0.52,3.3-1.25c1.05-0.85,1.77-2.07,2.07-3.6
			l-0.05-0.02c-0.83,0.92-1.97,1.45-3.55,1.45c-2.82,0-4.92-2.05-4.92-5.05c0-3.1,2.4-5.8,5.87-5.8c3.77,0,5.8,2.97,5.8,6.92
			c0,3.47-1.15,5.95-2.82,7.55c-1.42,1.32-3.37,2.07-5.55,2.22c-0.7,0.08-1.4,0.08-1.85,0.05V37.68z M922.37,28.98
			c0.03,1.67,0.97,2.97,2.67,2.97c1.25,0,2.15-0.58,2.62-1.35c0.1-0.2,0.17-0.45,0.17-0.87c0.03-2.2-0.8-4.1-2.8-4.1
			C923.49,25.63,922.37,27.01,922.37,28.98z"/>
		<path class="st3" d="M932.04,42.91c0.67-1.9,1.35-4.52,1.67-6.6l3.22-0.25c-0.7,2.35-1.82,5.05-2.8,6.65L932.04,42.91z"/>
		<path class="st3" d="M939.44,36.71c0.62,0.38,2.15,1,3.7,1c2.35,0,3.3-1.32,3.27-2.6c0-1.92-1.8-2.75-3.67-2.75h-1.42v-2.25h1.38
			c1.42,0,3.22-0.65,3.22-2.27c0-1.1-0.82-2.02-2.6-2.02c-1.32,0-2.65,0.58-3.32,1.02l-0.7-2.22c0.92-0.65,2.72-1.25,4.67-1.25
			c3.35,0,5.07,1.85,5.07,3.97c0,1.7-1,3.1-3,3.8v0.05c1.97,0.35,3.57,1.85,3.57,4.05c0,2.75-2.3,4.92-6.32,4.92
			c-1.97,0-3.67-0.55-4.55-1.12L939.44,36.71z"/>
		<path class="st3" d="M951.99,35.71c0-2.02,1.17-3.4,3.05-4.22v-0.08c-1.7-0.82-2.47-2.17-2.47-3.6c0-2.65,2.35-4.45,5.42-4.45
			c3.5,0,5.1,2.1,5.1,4.1c0,1.37-0.72,2.8-2.5,3.67v0.08c1.78,0.67,3.1,2.07,3.1,4.1c0,2.9-2.45,4.85-5.92,4.85
			C953.97,40.16,951.99,37.98,951.99,35.71z M960.57,35.56c0-1.65-1.22-2.55-3.02-3.05c-1.52,0.45-2.4,1.5-2.4,2.85
			c-0.05,1.37,1,2.62,2.72,2.62C959.49,37.98,960.57,36.96,960.57,35.56z M955.49,27.68c0,1.32,1.1,2.12,2.65,2.55
			c1.1-0.33,2.02-1.23,2.02-2.45c0-1.12-0.67-2.3-2.32-2.3C956.29,25.48,955.49,26.51,955.49,27.68z"/>
		<path class="st3" d="M965.62,39.88v-1.87l1.92-1.77c3.82-3.55,5.62-5.5,5.65-7.65c0-1.45-0.77-2.72-2.9-2.72
			c-1.42,0-2.65,0.72-3.47,1.35l-0.9-2.17c1.17-0.95,2.95-1.67,5-1.67c3.6,0,5.35,2.27,5.35,4.92c0,2.85-2.05,5.15-4.87,7.77
			l-1.42,1.23v0.05h6.67v2.55H965.62z"/>
	</g>
	<g>
		<path class="st6" d="M897.36,363.29v-2.42c-1.58-0.05-3.15-0.5-4.05-1.1l0.67-2.35c0.97,0.57,2.37,1.1,3.9,1.1
			c1.58,0,2.65-0.78,2.65-1.97c0-1.12-0.88-1.85-2.72-2.52c-2.62-0.95-4.32-2.15-4.32-4.47c0-2.15,1.5-3.8,4.02-4.25v-2.45h2.05
			v2.33c1.57,0.05,2.65,0.42,3.45,0.82l-0.67,2.3c-0.6-0.28-1.7-0.85-3.4-0.85c-1.75,0-2.37,0.9-2.37,1.75c0,1.03,0.9,1.6,3.02,2.45
			c2.8,1.05,4.05,2.4,4.05,4.62c0,2.12-1.47,4-4.22,4.45v2.57H897.36z"/>
		<path class="st6" d="M911.11,347.67h-0.05l-2.97,1.5l-0.52-2.33l3.95-1.95h2.57v16.25h-2.97V347.67z"/>
		<path class="st6" d="M920.31,357.96c0.62,0.38,2.15,1,3.7,1c2.35,0,3.3-1.32,3.27-2.6c0-1.92-1.8-2.75-3.67-2.75h-1.42v-2.25h1.38
			c1.42,0,3.22-0.65,3.22-2.27c0-1.1-0.82-2.02-2.6-2.02c-1.32,0-2.65,0.57-3.32,1.02l-0.7-2.22c0.92-0.65,2.72-1.25,4.67-1.25
			c3.35,0,5.07,1.85,5.07,3.97c0,1.7-1,3.1-3,3.8v0.05c1.97,0.35,3.57,1.85,3.57,4.05c0,2.75-2.3,4.92-6.32,4.92
			c-1.97,0-3.67-0.55-4.55-1.12L920.31,357.96z"/>
		<path class="st6" d="M944.56,352.92c0,5.22-2.05,8.5-5.92,8.5c-3.75,0-5.75-3.4-5.77-8.35c0-5.05,2.15-8.45,5.95-8.45
			C942.74,344.62,944.56,348.12,944.56,352.92z M935.96,353.06c-0.03,3.95,1.07,6,2.77,6c1.8,0,2.75-2.2,2.75-6.1
			c0-3.77-0.9-6-2.75-6C937.09,346.97,935.94,348.99,935.96,353.06z"/>
		<path class="st6" d="M945.61,364.16c0.67-1.9,1.35-4.52,1.67-6.6l3.22-0.25c-0.7,2.35-1.82,5.05-2.8,6.65L945.61,364.16z"/>
		<path class="st6" d="M953.64,358.94c0.47,0.05,0.95,0.02,1.7-0.05c1.2-0.1,2.4-0.53,3.3-1.25c1.05-0.85,1.77-2.07,2.07-3.6
			l-0.05-0.02c-0.83,0.92-1.97,1.45-3.55,1.45c-2.82,0-4.92-2.05-4.92-5.05c0-3.1,2.4-5.8,5.87-5.8c3.77,0,5.8,2.97,5.8,6.92
			c0,3.47-1.15,5.95-2.82,7.55c-1.42,1.33-3.37,2.08-5.55,2.22c-0.7,0.08-1.4,0.08-1.85,0.05V358.94z M955.24,350.24
			c0.03,1.67,0.97,2.97,2.67,2.97c1.25,0,2.15-0.58,2.62-1.35c0.1-0.2,0.17-0.45,0.17-0.87c0.03-2.2-0.8-4.1-2.8-4.1
			C956.36,346.89,955.24,348.27,955.24,350.24z"/>
		<path class="st6" d="M976.96,344.89v1.97l-6.87,14.27h-3.25l6.85-13.65v-0.05h-7.65v-2.55H976.96z"/>
		<path class="st6" d="M989.09,347.07c-0.45,0-0.95,0-1.58,0.08c-3.4,0.4-5.05,2.5-5.45,4.75h0.08c0.8-0.92,2.02-1.57,3.65-1.57
			c2.8,0,4.97,2,4.97,5.3c0,3.1-2.27,5.8-5.72,5.8c-3.95,0-6.12-3-6.12-7c0-3.12,1.12-5.67,2.82-7.3c1.5-1.4,3.45-2.2,5.77-2.4
			c0.67-0.08,1.17-0.08,1.55-0.05L989.09,347.07z M987.64,355.79c0-1.88-1.02-3.22-2.82-3.22c-1.15,0-2.17,0.7-2.65,1.67
			c-0.12,0.25-0.2,0.55-0.2,0.97c0.05,2.15,1.08,3.9,3.05,3.9C986.61,359.11,987.64,357.74,987.64,355.79z"/>
	</g>
	<g>
		<path class="st6" d="M741.45,406.84v-2.52c-1.45-0.03-2.95-0.47-3.82-1.1l0.6-1.67c0.9,0.6,2.2,1.08,3.6,1.08
			c1.78,0,2.97-1.03,2.97-2.45c0-1.38-0.97-2.22-2.82-2.97c-2.55-1-4.12-2.15-4.12-4.32c0-2.07,1.47-3.65,3.77-4.02v-2.52h1.55v2.42
			c1.5,0.05,2.52,0.45,3.25,0.88l-0.62,1.65c-0.53-0.3-1.55-0.85-3.15-0.85c-1.92,0-2.65,1.15-2.65,2.15c0,1.3,0.92,1.95,3.1,2.85
			c2.57,1.05,3.87,2.35,3.87,4.57c0,1.97-1.38,3.82-3.95,4.25v2.6H741.45z"/>
		<path class="st6" d="M754.72,390.5h-0.05l-2.82,1.52l-0.42-1.67l3.55-1.9h1.88v16.25h-2.12V390.5z"/>
		<path class="st6" d="M762.77,404.69v-1.35l1.72-1.67c4.15-3.95,6.02-6.05,6.05-8.5c0-1.65-0.8-3.17-3.22-3.17
			c-1.47,0-2.7,0.75-3.45,1.38l-0.7-1.55c1.12-0.95,2.72-1.65,4.6-1.65c3.5,0,4.97,2.4,4.97,4.72c0,3-2.17,5.42-5.6,8.72l-1.3,1.2
			v0.05h7.3v1.82H762.77z"/>
		<path class="st6" d="M785.29,390.3h-6.2l-0.62,4.17c0.38-0.05,0.72-0.1,1.32-0.1c1.25,0,2.5,0.27,3.5,0.88
			c1.27,0.72,2.32,2.12,2.32,4.17c0,3.17-2.52,5.55-6.05,5.55c-1.77,0-3.27-0.5-4.05-1l0.55-1.67c0.67,0.4,2,0.9,3.47,0.9
			c2.07,0,3.85-1.35,3.85-3.52c-0.03-2.1-1.42-3.6-4.67-3.6c-0.92,0-1.65,0.1-2.25,0.17l1.05-7.8h7.77V390.3z"/>
		<path class="st6" d="M787.7,407.77c0.55-1.47,1.23-4.15,1.5-5.97l2.45-0.25c-0.57,2.12-1.67,4.9-2.37,6.07L787.7,407.77z"/>
		<path class="st6" d="M793.6,404.69v-1.35l1.72-1.67c4.15-3.95,6.02-6.05,6.05-8.5c0-1.65-0.8-3.17-3.22-3.17
			c-1.47,0-2.7,0.75-3.45,1.38l-0.7-1.55c1.12-0.95,2.72-1.65,4.6-1.65c3.5,0,4.97,2.4,4.97,4.72c0,3-2.17,5.42-5.6,8.72l-1.3,1.2
			v0.05h7.3v1.82H793.6z"/>
		<path class="st6" d="M811.19,390.5h-0.05l-2.82,1.52l-0.42-1.67l3.55-1.9h1.88v16.25h-2.12V390.5z"/>
		<path class="st6" d="M828.52,390c-0.45-0.03-1.02,0-1.65,0.1c-3.45,0.58-5.27,3.1-5.65,5.77h0.07c0.78-1.02,2.12-1.87,3.92-1.87
			c2.87,0,4.9,2.07,4.9,5.25c0,2.97-2.02,5.72-5.4,5.72c-3.47,0-5.75-2.7-5.75-6.92c0-3.2,1.15-5.72,2.75-7.32
			c1.35-1.32,3.15-2.15,5.2-2.4c0.65-0.1,1.2-0.12,1.6-0.12V390z M827.89,399.37c0-2.33-1.32-3.72-3.35-3.72
			c-1.33,0-2.55,0.83-3.15,2c-0.15,0.25-0.25,0.57-0.25,0.97c0.05,2.67,1.27,4.65,3.57,4.65
			C826.62,403.27,827.89,401.69,827.89,399.37z"/>
	</g>
	<g>
		<path class="st6" d="M573.97,448.82v-2.52c-1.45-0.02-2.95-0.47-3.82-1.1l0.6-1.67c0.9,0.6,2.2,1.08,3.6,1.08
			c1.78,0,2.97-1.03,2.97-2.45c0-1.38-0.97-2.22-2.82-2.97c-2.55-1-4.12-2.15-4.12-4.32c0-2.07,1.47-3.65,3.77-4.02v-2.52h1.55v2.42
			c1.5,0.05,2.52,0.45,3.25,0.88l-0.62,1.65c-0.53-0.3-1.55-0.85-3.15-0.85c-1.92,0-2.65,1.15-2.65,2.15c0,1.3,0.92,1.95,3.1,2.85
			c2.57,1.05,3.87,2.35,3.87,4.57c0,1.97-1.38,3.82-3.95,4.25v2.6H573.97z"/>
		<path class="st6" d="M587.24,432.48h-0.05l-2.82,1.52l-0.42-1.67l3.55-1.9h1.88v16.25h-2.12V432.48z"/>
		<path class="st6" d="M600.07,432.48h-0.05L597.2,434l-0.42-1.67l3.55-1.9h1.88v16.25h-2.12V432.48z"/>
		<path class="st6" d="M609.39,445.12c0.47,0.05,1.02,0,1.77-0.08c1.27-0.17,2.47-0.7,3.4-1.57c1.07-0.97,1.85-2.4,2.15-4.32h-0.08
			c-0.9,1.1-2.2,1.75-3.82,1.75c-2.92,0-4.8-2.2-4.8-4.97c0-3.07,2.22-5.77,5.55-5.77s5.37,2.7,5.37,6.85c0,3.57-1.2,6.07-2.8,7.62
			c-1.25,1.22-2.97,1.97-4.72,2.17c-0.8,0.12-1.5,0.15-2.02,0.12V445.12z M610.19,435.78c0,2.02,1.22,3.45,3.12,3.45
			c1.47,0,2.62-0.72,3.2-1.7c0.12-0.2,0.2-0.45,0.2-0.8c0-2.77-1.02-4.9-3.32-4.9C611.52,431.83,610.19,433.48,610.19,435.78z"/>
		<path class="st6" d="M620.22,449.75c0.55-1.47,1.23-4.15,1.5-5.97l2.45-0.25c-0.57,2.12-1.67,4.9-2.37,6.07L620.22,449.75z"/>
		<path class="st6" d="M636.67,430.43v1.45l-7.07,14.8h-2.27l7.05-14.37v-0.05h-7.95v-1.82H636.67z"/>
		<path class="st6" d="M649.74,438.38c0,5.52-2.05,8.57-5.65,8.57c-3.17,0-5.32-2.97-5.37-8.35c0-5.45,2.35-8.45,5.65-8.45
			C647.79,430.15,649.74,433.2,649.74,438.38z M640.92,438.62c0,4.22,1.3,6.62,3.3,6.62c2.25,0,3.32-2.62,3.32-6.77
			c0-4-1.02-6.62-3.3-6.62C642.32,431.85,640.92,434.2,640.92,438.62z"/>
		<path class="st6" d="M653.04,445.12c0.47,0.05,1.02,0,1.77-0.08c1.27-0.17,2.47-0.7,3.4-1.57c1.07-0.97,1.85-2.4,2.15-4.32h-0.08
			c-0.9,1.1-2.2,1.75-3.82,1.75c-2.92,0-4.8-2.2-4.8-4.97c0-3.07,2.22-5.77,5.55-5.77s5.37,2.7,5.37,6.85c0,3.57-1.2,6.07-2.8,7.62
			c-1.25,1.22-2.97,1.97-4.72,2.17c-0.8,0.12-1.5,0.15-2.02,0.12V445.12z M653.84,435.78c0,2.02,1.22,3.45,3.12,3.45
			c1.47,0,2.62-0.72,3.2-1.7c0.12-0.2,0.2-0.45,0.2-0.8c0-2.77-1.02-4.9-3.32-4.9C655.17,431.83,653.84,433.48,653.84,435.78z"/>
	</g>
	<g>
		<path class="st6" d="M410.67,495.76v-2.52c-1.45-0.02-2.95-0.47-3.82-1.1l0.6-1.67c0.9,0.6,2.2,1.08,3.6,1.08
			c1.77,0,2.97-1.03,2.97-2.45c0-1.38-0.97-2.22-2.82-2.97c-2.55-1-4.12-2.15-4.12-4.32c0-2.07,1.47-3.65,3.77-4.02v-2.52h1.55v2.42
			c1.5,0.05,2.52,0.45,3.25,0.88l-0.62,1.65c-0.53-0.3-1.55-0.85-3.15-0.85c-1.92,0-2.65,1.15-2.65,2.15c0,1.3,0.92,1.95,3.1,2.85
			c2.57,1.05,3.87,2.35,3.87,4.57c0,1.97-1.38,3.82-3.95,4.25v2.6H410.67z"/>
		<path class="st6" d="M423.95,479.42h-0.05l-2.82,1.52l-0.42-1.67l3.55-1.9h1.88v16.25h-2.12V479.42z"/>
		<path class="st6" d="M436.77,479.42h-0.05l-2.82,1.52l-0.42-1.67l3.55-1.9h1.88v16.25h-2.12V479.42z"/>
		<path class="st6" d="M451.62,493.61v-4.42h-7.55v-1.45l7.25-10.37h2.37v10.1h2.28v1.72h-2.28v4.42H451.62z M451.62,487.46v-5.42
			c0-0.85,0.03-1.7,0.08-2.55h-0.08c-0.5,0.95-0.9,1.65-1.35,2.4l-3.97,5.52v0.05H451.62z"/>
		<path class="st6" d="M456.93,496.69c0.55-1.47,1.22-4.15,1.5-5.97l2.45-0.25c-0.57,2.12-1.67,4.9-2.37,6.07L456.93,496.69z"/>
		<path class="st6" d="M469.62,493.61v-4.42h-7.55v-1.45l7.25-10.37h2.37v10.1h2.28v1.72h-2.28v4.42H469.62z M469.62,487.46v-5.42
			c0-0.85,0.03-1.7,0.08-2.55h-0.08c-0.5,0.95-0.9,1.65-1.35,2.4l-3.97,5.52v0.05H469.62z"/>
		<path class="st6" d="M482.45,493.61v-4.42h-7.55v-1.45l7.25-10.37h2.37v10.1h2.28v1.72h-2.28v4.42H482.45z M482.45,487.46v-5.42
			c0-0.85,0.03-1.7,0.08-2.55h-0.08c-0.5,0.95-0.9,1.65-1.35,2.4l-3.97,5.52v0.05H482.45z"/>
		<path class="st6" d="M498.17,479.21h-6.2l-0.62,4.17c0.38-0.05,0.72-0.1,1.32-0.1c1.25,0,2.5,0.27,3.5,0.88
			c1.27,0.72,2.32,2.12,2.32,4.17c0,3.17-2.52,5.55-6.05,5.55c-1.77,0-3.27-0.5-4.05-1l0.55-1.67c0.67,0.4,2,0.9,3.47,0.9
			c2.07,0,3.85-1.35,3.85-3.52c-0.03-2.1-1.42-3.6-4.67-3.6c-0.92,0-1.65,0.1-2.25,0.17l1.05-7.8h7.77V479.21z"/>
	</g>
	<g>
		<path class="st6" d="M245.43,544.4v-2.52c-1.45-0.02-2.95-0.47-3.82-1.1l0.6-1.67c0.9,0.6,2.2,1.08,3.6,1.08
			c1.77,0,2.97-1.03,2.97-2.45c0-1.38-0.97-2.22-2.82-2.97c-2.55-1-4.12-2.15-4.12-4.32c0-2.07,1.47-3.65,3.77-4.02v-2.52h1.55v2.42
			c1.5,0.05,2.52,0.45,3.25,0.88l-0.62,1.65c-0.52-0.3-1.55-0.85-3.15-0.85c-1.92,0-2.65,1.15-2.65,2.15c0,1.3,0.92,1.95,3.1,2.85
			c2.57,1.05,3.87,2.35,3.87,4.57c0,1.97-1.37,3.82-3.95,4.25v2.6H245.43z"/>
		<path class="st6" d="M258.7,528.05h-0.05l-2.82,1.52l-0.42-1.67l3.55-1.9h1.87v16.25h-2.12V528.05z"/>
		<path class="st6" d="M277.55,533.95c0,5.52-2.05,8.57-5.65,8.57c-3.17,0-5.32-2.97-5.37-8.35c0-5.45,2.35-8.45,5.65-8.45
			C275.6,525.73,277.55,528.78,277.55,533.95z M268.73,534.2c0,4.22,1.3,6.62,3.3,6.62c2.25,0,3.32-2.62,3.32-6.77
			c0-4-1.02-6.62-3.3-6.62C270.12,527.43,268.73,529.78,268.73,534.2z"/>
		<path class="st6" d="M280.85,540.7c0.48,0.05,1.02,0,1.77-0.08c1.27-0.17,2.47-0.7,3.4-1.57c1.07-0.97,1.85-2.4,2.15-4.32h-0.08
			c-0.9,1.1-2.2,1.75-3.82,1.75c-2.92,0-4.8-2.2-4.8-4.97c0-3.07,2.22-5.77,5.55-5.77s5.37,2.7,5.37,6.85c0,3.57-1.2,6.07-2.8,7.62
			c-1.25,1.22-2.97,1.97-4.72,2.17c-0.8,0.12-1.5,0.15-2.02,0.12V540.7z M281.65,531.35c0,2.02,1.22,3.45,3.12,3.45
			c1.47,0,2.62-0.72,3.2-1.7c0.12-0.2,0.2-0.45,0.2-0.8c0-2.77-1.02-4.9-3.32-4.9C282.97,527.4,281.65,529.05,281.65,531.35z"/>
		<path class="st6" d="M291.67,545.32c0.55-1.47,1.22-4.15,1.5-5.97l2.45-0.25c-0.58,2.12-1.67,4.9-2.37,6.07L291.67,545.32z"/>
		<path class="st6" d="M304.37,542.25v-4.42h-7.55v-1.45l7.25-10.37h2.37v10.1h2.27v1.72h-2.27v4.42H304.37z M304.37,536.1v-5.42
			c0-0.85,0.03-1.7,0.08-2.55h-0.08c-0.5,0.95-0.9,1.65-1.35,2.4l-3.97,5.52v0.05H304.37z"/>
		<path class="st6" d="M315.17,528.05h-0.05l-2.82,1.52l-0.43-1.67l3.55-1.9h1.87v16.25h-2.12V528.05z"/>
		<path class="st6" d="M323.22,542.25v-1.35l1.72-1.67c4.15-3.95,6.02-6.05,6.05-8.5c0-1.65-0.8-3.17-3.22-3.17
			c-1.47,0-2.7,0.75-3.45,1.38l-0.7-1.55c1.12-0.95,2.72-1.65,4.6-1.65c3.5,0,4.97,2.4,4.97,4.72c0,3-2.17,5.42-5.6,8.72l-1.3,1.2
			v0.05h7.3v1.82H323.22z"/>
	</g>
	<g>
		<path class="st1" d="M84.2,591.69v-2.52c-1.45-0.03-2.95-0.47-3.82-1.1l0.6-1.67c0.9,0.6,2.2,1.08,3.6,1.08
			c1.77,0,2.97-1.03,2.97-2.45c0-1.38-0.97-2.22-2.82-2.97c-2.55-1-4.12-2.15-4.12-4.32c0-2.07,1.47-3.65,3.77-4.02v-2.52h1.55v2.42
			c1.5,0.05,2.52,0.45,3.25,0.88l-0.62,1.65c-0.52-0.3-1.55-0.85-3.15-0.85c-1.92,0-2.65,1.15-2.65,2.15c0,1.3,0.92,1.95,3.1,2.85
			c2.57,1.05,3.87,2.35,3.87,4.57c0,1.97-1.37,3.82-3.95,4.25v2.6H84.2z"/>
		<path class="st1" d="M97.48,575.34h-0.05l-2.82,1.52l-0.42-1.67l3.55-1.9h1.87v16.25h-2.12V575.34z"/>
		<path class="st1" d="M116.33,581.24c0,5.52-2.05,8.57-5.65,8.57c-3.17,0-5.32-2.97-5.37-8.35c0-5.45,2.35-8.45,5.65-8.45
			C114.38,573.02,116.33,576.07,116.33,581.24z M107.5,581.49c0,4.22,1.3,6.62,3.3,6.62c2.25,0,3.32-2.62,3.32-6.77
			c0-4-1.02-6.62-3.3-6.62C108.9,574.72,107.5,577.07,107.5,581.49z"/>
		<path class="st1" d="M125.15,589.54v-4.42h-7.55v-1.45l7.25-10.37h2.37v10.1h2.27v1.72h-2.27v4.42H125.15z M125.15,583.39v-5.42
			c0-0.85,0.03-1.7,0.08-2.55h-0.08c-0.5,0.95-0.9,1.65-1.35,2.4l-3.97,5.52v0.05H125.15z"/>
		<path class="st1" d="M130.45,592.61c0.55-1.47,1.22-4.15,1.5-5.97l2.45-0.25c-0.58,2.12-1.67,4.9-2.37,6.07L130.45,592.61z"/>
		<path class="st1" d="M145.62,574.84c-0.45-0.03-1.02,0-1.65,0.1c-3.45,0.58-5.27,3.1-5.65,5.77h0.08
			c0.77-1.02,2.12-1.87,3.92-1.87c2.87,0,4.9,2.07,4.9,5.25c0,2.97-2.02,5.72-5.4,5.72c-3.47,0-5.75-2.7-5.75-6.92
			c0-3.2,1.15-5.72,2.75-7.32c1.35-1.32,3.15-2.15,5.2-2.4c0.65-0.1,1.2-0.12,1.6-0.12V574.84z M145,584.22
			c0-2.33-1.32-3.72-3.35-3.72c-1.32,0-2.55,0.83-3.15,2c-0.15,0.25-0.25,0.57-0.25,0.97c0.05,2.67,1.27,4.65,3.57,4.65
			C143.73,588.12,145,586.54,145,584.22z"/>
		<path class="st1" d="M159.97,581.24c0,5.52-2.05,8.57-5.65,8.57c-3.17,0-5.32-2.97-5.37-8.35c0-5.45,2.35-8.45,5.65-8.45
			C158.02,573.02,159.97,576.07,159.97,581.24z M151.15,581.49c0,4.22,1.3,6.62,3.3,6.62c2.25,0,3.32-2.62,3.32-6.77
			c0-4-1.02-6.62-3.3-6.62C152.55,574.72,151.15,577.07,151.15,581.49z"/>
		<path class="st1" d="M172.8,581.24c0,5.52-2.05,8.57-5.65,8.57c-3.17,0-5.32-2.97-5.37-8.35c0-5.45,2.35-8.45,5.65-8.45
			C170.85,573.02,172.8,576.07,172.8,581.24z M163.98,581.49c0,4.22,1.3,6.62,3.3,6.62c2.25,0,3.32-2.62,3.32-6.77
			c0-4-1.02-6.62-3.3-6.62C165.38,574.72,163.98,577.07,163.98,581.49z"/>
	</g>
	<g>
		<path class="st3" d="M180.56,650.33v-2.52c-1.45-0.03-2.95-0.47-3.82-1.1l0.6-1.67c0.9,0.6,2.2,1.08,3.6,1.08
			c1.77,0,2.97-1.03,2.97-2.45c0-1.38-0.97-2.22-2.82-2.97c-2.55-1-4.12-2.15-4.12-4.32c0-2.07,1.47-3.65,3.77-4.02v-2.52h1.55v2.42
			c1.5,0.05,2.52,0.45,3.25,0.88l-0.62,1.65c-0.52-0.3-1.55-0.85-3.15-0.85c-1.92,0-2.65,1.15-2.65,2.15c0,1.3,0.92,1.95,3.1,2.85
			c2.57,1.05,3.87,2.35,3.87,4.57c0,1.97-1.37,3.82-3.95,4.25v2.6H180.56z"/>
		<path class="st3" d="M193.83,633.98h-0.05l-2.82,1.52l-0.42-1.67l3.55-1.9h1.87v16.25h-2.12V633.98z"/>
		<path class="st3" d="M212.68,639.88c0,5.52-2.05,8.57-5.65,8.57c-3.17,0-5.32-2.97-5.37-8.35c0-5.45,2.35-8.45,5.65-8.45
			C210.73,631.66,212.68,634.71,212.68,639.88z M203.86,640.13c0,4.22,1.3,6.62,3.3,6.62c2.25,0,3.32-2.62,3.32-6.77
			c0-4-1.02-6.62-3.3-6.62C205.26,633.36,203.86,635.71,203.86,640.13z"/>
		<path class="st3" d="M214.71,648.18v-1.35l1.72-1.67c4.15-3.95,6.02-6.05,6.05-8.5c0-1.65-0.8-3.17-3.22-3.17
			c-1.47,0-2.7,0.75-3.45,1.38l-0.7-1.55c1.12-0.95,2.72-1.65,4.6-1.65c3.5,0,4.97,2.4,4.97,4.72c0,3-2.17,5.42-5.6,8.72l-1.3,1.2
			v0.05h7.3v1.82H214.71z"/>
		<path class="st3" d="M226.81,651.25c0.55-1.47,1.22-4.15,1.5-5.97l2.45-0.25c-0.58,2.12-1.67,4.9-2.37,6.07L226.81,651.25z"/>
		<path class="st3" d="M237.48,633.98h-0.05l-2.82,1.52l-0.42-1.67l3.55-1.9h1.87v16.25h-2.12V633.98z"/>
		<path class="st3" d="M245.53,648.18v-1.35l1.72-1.67c4.15-3.95,6.02-6.05,6.05-8.5c0-1.65-0.8-3.17-3.22-3.17
			c-1.48,0-2.7,0.75-3.45,1.38l-0.7-1.55c1.12-0.95,2.72-1.65,4.6-1.65c3.5,0,4.97,2.4,4.97,4.72c0,3-2.17,5.42-5.6,8.72l-1.3,1.2
			v0.05h7.3v1.82H245.53z"/>
		<path class="st3" d="M268.06,633.78h-6.2l-0.62,4.17c0.38-0.05,0.72-0.1,1.32-0.1c1.25,0,2.5,0.27,3.5,0.88
			c1.27,0.72,2.32,2.12,2.32,4.17c0,3.17-2.52,5.55-6.05,5.55c-1.77,0-3.27-0.5-4.05-1l0.55-1.67c0.67,0.4,2,0.9,3.47,0.9
			c2.07,0,3.85-1.35,3.85-3.52c-0.02-2.1-1.42-3.6-4.67-3.6c-0.92,0-1.65,0.1-2.25,0.17l1.05-7.8h7.77V633.78z"/>
	</g>
	<g>
		<path class="st3" d="M344.49,623.81v-2.52c-1.45-0.02-2.95-0.47-3.82-1.1l0.6-1.67c0.9,0.6,2.2,1.08,3.6,1.08
			c1.77,0,2.97-1.03,2.97-2.45c0-1.38-0.97-2.22-2.82-2.97c-2.55-1-4.12-2.15-4.12-4.32c0-2.07,1.47-3.65,3.77-4.02v-2.52h1.55v2.42
			c1.5,0.05,2.52,0.45,3.25,0.88l-0.62,1.65c-0.52-0.3-1.55-0.85-3.15-0.85c-1.92,0-2.65,1.15-2.65,2.15c0,1.3,0.92,1.95,3.1,2.85
			c2.57,1.05,3.87,2.35,3.87,4.57c0,1.97-1.37,3.82-3.95,4.25v2.6H344.49z"/>
		<path class="st3" d="M357.77,607.47h-0.05l-2.82,1.52l-0.42-1.67l3.55-1.9h1.87v16.25h-2.12V607.47z"/>
		<path class="st3" d="M376.62,613.37c0,5.52-2.05,8.57-5.65,8.57c-3.17,0-5.32-2.97-5.37-8.35c0-5.45,2.35-8.45,5.65-8.45
			C374.67,605.14,376.62,608.19,376.62,613.37z M367.79,613.62c0,4.22,1.3,6.62,3.3,6.62c2.25,0,3.32-2.62,3.32-6.77
			c0-4-1.02-6.62-3.3-6.62C369.19,606.84,367.79,609.19,367.79,613.62z"/>
		<path class="st3" d="M385.44,621.66v-4.42h-7.55v-1.45l7.25-10.37h2.37v10.1h2.27v1.72h-2.27v4.42H385.44z M385.44,615.51v-5.42
			c0-0.85,0.03-1.7,0.08-2.55h-0.08c-0.5,0.95-0.9,1.65-1.35,2.4l-3.97,5.52v0.05H385.44z"/>
		<path class="st3" d="M390.74,624.74c0.55-1.47,1.22-4.15,1.5-5.97l2.45-0.25c-0.58,2.12-1.67,4.9-2.37,6.07L390.74,624.74z"/>
		<path class="st3" d="M397.17,619.14c0.62,0.4,2.07,1.02,3.6,1.02c2.82,0,3.7-1.8,3.67-3.15c-0.02-2.27-2.07-3.25-4.2-3.25h-1.22
			v-1.65h1.22c1.6,0,3.62-0.82,3.62-2.75c0-1.3-0.83-2.45-2.85-2.45c-1.3,0-2.55,0.57-3.25,1.07l-0.57-1.6
			c0.85-0.62,2.5-1.25,4.25-1.25c3.2,0,4.65,1.9,4.65,3.87c0,1.67-1,3.1-3,3.82v0.05c2,0.4,3.62,1.9,3.62,4.17
			c0,2.6-2.02,4.87-5.92,4.87c-1.82,0-3.42-0.58-4.22-1.1L397.17,619.14z"/>
		<path class="st3" d="M414.24,607.47h-0.05l-2.82,1.52l-0.43-1.67l3.55-1.9h1.87v16.25h-2.12V607.47z"/>
		<path class="st3" d="M423.57,620.11c0.48,0.05,1.02,0,1.77-0.08c1.27-0.17,2.47-0.7,3.4-1.57c1.07-0.97,1.85-2.4,2.15-4.32h-0.08
			c-0.9,1.1-2.2,1.75-3.82,1.75c-2.92,0-4.8-2.2-4.8-4.97c0-3.07,2.22-5.77,5.55-5.77s5.37,2.7,5.37,6.85c0,3.57-1.2,6.07-2.8,7.62
			c-1.25,1.22-2.97,1.97-4.72,2.17c-0.8,0.12-1.5,0.15-2.02,0.12V620.11z M424.37,610.77c0,2.02,1.22,3.45,3.12,3.45
			c1.47,0,2.62-0.72,3.2-1.7c0.12-0.2,0.2-0.45,0.2-0.8c0-2.77-1.02-4.9-3.32-4.9C425.69,606.82,424.37,608.47,424.37,610.77z"/>
	</g>
	<circle class="st3" cx="170.28" cy="626.58" r="4.83"/>
	<circle class="st3" cx="334.22" cy="600.6" r="4.83"/>
	<circle class="st3" cx="498.15" cy="574.6" r="4.83"/>
	<circle class="st3" cx="662.09" cy="547.98" r="4.83"/>
	<circle class="st3" cx="826.02" cy="521.58" r="4.83"/>
	<circle class="st3" cx="989.96" cy="35.66" r="4.83"/>
</g>
</svg>
