<?xml version="1.0" encoding="utf-8"?>
<!-- Generator: Adobe Illustrator 27.0.0, SVG Export Plug-In . SVG Version: 6.00 Build 0)  -->
<svg version="1.1" id="Layer_1" xmlns="http://www.w3.org/2000/svg" xmlns:xlink="http://www.w3.org/1999/xlink" x="0px" y="0px"
	 viewBox="0 0 81 81" style="enable-background:new 0 0 81 81;" xml:space="preserve">
<style type="text/css">
	.st0{fill:none;stroke:#354422;stroke-width:0.75;stroke-linecap:round;stroke-linejoin:round;stroke-miterlimit:10;}
	
		.st1{clip-path:url(#SVGID_00000049940545924935004760000016237967724032550277_);fill:none;stroke:#E25426;stroke-width:2;stroke-linecap:round;stroke-linejoin:round;stroke-miterlimit:10;}
	.st2{fill:#354422;}
	.st3{fill:none;stroke:url(#SVGID_00000173858459637991599030000012037883180662513286_);stroke-miterlimit:10;}
	
		.st4{clip-path:url(#SVGID_00000051378660747224905490000001345820125627177140_);fill:none;stroke:#354422;stroke-width:0.75;stroke-linecap:round;stroke-miterlimit:10;}
	
		.st5{clip-path:url(#SVGID_00000051378660747224905490000001345820125627177140_);fill:none;stroke:#E25426;stroke-width:0.75;stroke-miterlimit:10;}
	
		.st6{clip-path:url(#SVGID_00000051378660747224905490000001345820125627177140_);fill:none;stroke:#E25426;stroke-width:0.75;stroke-linecap:round;stroke-linejoin:round;stroke-miterlimit:10;}
	
		.st7{clip-path:url(#SVGID_00000088851034795729529310000011316545473830710402_);fill:none;stroke:#E25426;stroke-width:0.75;stroke-linejoin:round;stroke-miterlimit:10;}
	
		.st8{clip-path:url(#SVGID_00000088851034795729529310000011316545473830710402_);fill:none;stroke:#354422;stroke-width:0.75;stroke-linejoin:round;stroke-miterlimit:10;}
</style>
<path class="st0" d="M209.62,172.21"/>
<g>
	<defs>
		<rect id="SVGID_1_" x="17.79" y="17.77" width="45.42" height="45.45"/>
	</defs>
	<clipPath id="SVGID_00000061450612158386666550000006502978361957758390_">
		<use xlink:href="#SVGID_1_"  style="overflow:visible;"/>
	</clipPath>
	
		<path style="clip-path:url(#SVGID_00000061450612158386666550000006502978361957758390_);fill:none;stroke:#E25426;stroke-width:2;stroke-linecap:round;stroke-linejoin:round;stroke-miterlimit:10;" d="
		M62.29,43.63v-6.24l-4.58-0.77c-0.45-2-1.24-3.87-2.3-5.55l2.7-3.8l-4.4-4.4l-3.81,2.7c-1.68-1.06-3.55-1.84-5.54-2.29l-0.76-4.59
		h-6.22l-0.76,4.6c-1.99,0.45-3.86,1.23-5.54,2.29l-3.81-2.7l-4.4,4.39l2.7,3.81c-1.06,1.67-1.85,3.53-2.3,5.52l-4.58,0.79v6.24
		l4.58,0.75c0.45,2,1.23,3.87,2.3,5.54l-2.7,3.8l4.4,4.4l3.81-2.7c1.68,1.06,3.54,1.84,5.54,2.29l0.76,4.6h6.22l0.76-4.6
		c2-0.45,3.86-1.23,5.54-2.29l3.81,2.7l4.39-4.4l-2.7-3.8c1.06-1.67,1.84-3.53,2.29-5.52L62.29,43.63z M33.16,29.9
		c2.08-1.45,4.61-2.29,7.34-2.29c7.12,0,12.89,5.77,12.89,12.89S47.62,53.39,40.5,53.39c-7.12,0-12.89-5.77-12.89-12.89
		c0-2.67,0.81-5.15,2.2-7.21"/>
</g>
<g>
	<path class="st2" d="M35.86,33.04h1.71v8.84c0,3.51-1.73,4.59-4,4.59c-0.63,0-1.39-0.14-1.82-0.31l0.25-1.39
		c0.35,0.14,0.86,0.25,1.43,0.25c1.53,0,2.43-0.69,2.43-3.27V33.04z"/>
	<path class="st2" d="M40.4,33.2c0.82-0.14,1.9-0.25,3.27-0.25c1.69,0,2.92,0.39,3.71,1.1c0.73,0.63,1.16,1.59,1.16,2.76
		c0,1.2-0.35,2.14-1.02,2.82c-0.9,0.96-2.37,1.45-4.04,1.45c-0.51,0-0.98-0.02-1.37-0.12v5.29H40.4V33.2z M42.11,39.57
		c0.37,0.1,0.84,0.14,1.41,0.14c2.06,0,3.31-1,3.31-2.82c0-1.74-1.24-2.59-3.12-2.59c-0.74,0-1.31,0.06-1.61,0.14V39.57z"/>
</g>
<linearGradient id="SVGID_00000139994920108128778620000015767835465322903690_" gradientUnits="userSpaceOnUse" x1="11.8622" y1="69.1378" x2="69.1378" y2="11.8622">
	<stop  offset="0" style="stop-color:#354420"/>
	<stop  offset="1" style="stop-color:#678A3D"/>
</linearGradient>
<circle style="fill:none;stroke:url(#SVGID_00000139994920108128778620000015767835465322903690_);stroke-miterlimit:10;" cx="40.5" cy="40.5" r="40"/>
<g>
	<defs>
		<rect id="SVGID_00000024002513340865839620000013657126605504914593_" x="-105.4" y="-4.26" width="63.56" height="44.6"/>
	</defs>
	<clipPath id="SVGID_00000096044872203463250740000004360315846381878938_">
		<use xlink:href="#SVGID_00000024002513340865839620000013657126605504914593_"  style="overflow:visible;"/>
	</clipPath>
	
		<path style="clip-path:url(#SVGID_00000096044872203463250740000004360315846381878938_);fill:none;stroke:#354422;stroke-width:0.75;stroke-linecap:round;stroke-miterlimit:10;" d="
		M-54.52,24.66c0,1.95-1.57,3.53-3.51,3.53c-1.94,0-3.51-1.58-3.51-3.53s1.57-3.53,3.51-3.53C-56.09,21.13-54.52,22.71-54.52,24.66z
		 M-66.74,11.42c0,1.95-1.57,3.53-3.51,3.53c-1.94,0-3.51-1.58-3.51-3.53c0-1.95,1.57-3.53,3.51-3.53
		C-68.31,7.9-66.74,9.48-66.74,11.42z M-57.87,8.91l-12.54,18.27"/>
	
		<path style="clip-path:url(#SVGID_00000096044872203463250740000004360315846381878938_);fill:none;stroke:#E25426;stroke-width:0.75;stroke-miterlimit:10;" d="
		M-85.17,20.22c-0.18-1.72-0.14-3.45,0.1-5.16 M-84.23,11.46c1-3.06,2.71-5.93,5.14-8.36c8.25-8.26,21.64-8.26,29.89,0
		c8.26,8.26,8.26,21.64,0,29.9c-8.25,8.26-21.64,8.25-29.89,0c-2.65-2.65-4.45-5.83-5.4-9.2"/>
	
		<path style="clip-path:url(#SVGID_00000096044872203463250740000004360315846381878938_);fill:none;stroke:#E25426;stroke-width:0.75;stroke-linecap:round;stroke-linejoin:round;stroke-miterlimit:10;" d="
		M-102.02,15.1h-2.22 M-94.43,15.1h-3.69 M-96.99,29.05h-3.69 M-80.88,15.1h-9.65 M-88.56,7.03h-9.73 M-87.85,29.05h-5.23
		 M-79.8,23.46h-14.99"/>
</g>
<g>
	<defs>
		<rect id="SVGID_00000096032459147184407810000015567389188965172398_" x="153.95" y="-5.14" width="58.77" height="68.36"/>
	</defs>
	<clipPath id="SVGID_00000120518746360281733310000007734931914519497089_">
		<use xlink:href="#SVGID_00000096032459147184407810000015567389188965172398_"  style="overflow:visible;"/>
	</clipPath>
	
		<path style="clip-path:url(#SVGID_00000120518746360281733310000007734931914519497089_);fill:none;stroke:#E25426;stroke-width:0.75;stroke-linejoin:round;stroke-miterlimit:10;" d="
		M184.63,7.12l-3.3-8.87l4.45-1.99c1.25-0.56,2.68-0.09,3.43,1.12c0.67,1.07,1.88,1.57,3.04,1.26l6.55-1.75l-4.9,10.23
		 M172.52,38.08c-2.88-14.35,12.11-30.96,12.11-30.96h9.03c0.15,0,0.29,0.06,0.4,0.19c1.61,1.85,14.65,17.31,11.95,30.78
		 M155.86,44.65l1.9-0.8 M154.4,41l4.54-1.92l7.55,20.95l-5.02,2.12 M177.96,47.25l8.45,0.9c1.88,0.2,3.55-1.29,3.73-3.32
		c0.19-2.03-1.19-3.84-3.06-4.04l-7.2-0.77c-0.83-0.09-1.63-0.35-2.36-0.78l-0.79-0.46c-3.98-2.31-8.76-2.29-12.73,0.04l-4.28,2.24
		 M165.26,57.48c2.15-1.3,4.61-1.86,7.06-1.6l16.67,2.43c0.32,0.04,0.64-0.04,0.9-0.24l21.12-15.93c0.55-0.41,0.71-1.21,0.37-1.83
		c-1.35-2.51-4.26-3.46-6.66-2.16l-14.96,8.04"/>
	
		<path style="clip-path:url(#SVGID_00000120518746360281733310000007734931914519497089_);fill:none;stroke:#354422;stroke-width:0.75;stroke-linejoin:round;stroke-miterlimit:10;" d="
		M187.05,30.42l4.81-9.34 M182.01,21.16c2.32-4.5,7.53-6.09,11.64-3.56c4.11,2.53,5.57,8.23,3.26,12.73
		c-2.32,4.5-7.53,6.09-11.64,3.56C181.15,31.36,179.69,25.66,182.01,21.16z"/>
</g>
<path class="st0" d="M142.83,33.05"/>
</svg>
