<?xml version="1.0" encoding="utf-8"?>
<!-- Generator: Adobe Illustrator 26.1.0, SVG Export Plug-In . SVG Version: 6.00 Build 0)  -->
<svg version="1.1" id="Layer_1" xmlns="http://www.w3.org/2000/svg" xmlns:xlink="http://www.w3.org/1999/xlink" x="0px" y="0px"
	 viewBox="0 0 255.06 57.31" style="enable-background:new 0 0 255.06 57.31;" xml:space="preserve">
<style type="text/css">
	.st0{fill:#FFFFFF;}
</style>
<g>
	<path class="st0" d="M81.04,0.07c0.32,0.04,0.6,0.12,0.85,0.24c0.25,0.12,0.5,0.29,0.73,0.52c0.24,0.22,0.5,0.52,0.79,0.89
		l30.08,38.32c-0.11-0.92-0.18-1.83-0.22-2.71c-0.04-0.88-0.06-1.71-0.06-2.48V0.01h9.39v57.3h-5.51c-0.85,0-1.55-0.13-2.1-0.4
		c-0.55-0.26-1.1-0.74-1.62-1.43L83.42,17.33c0.08,0.85,0.14,1.68,0.18,2.52s0.06,1.59,0.06,2.28v35.19h-9.39V0.01h5.59
		C80.33,0.01,80.72,0.03,81.04,0.07z"/>
	<path class="st0" d="M128.08,0.01h8.96c0.92,0,1.7,0.22,2.32,0.65c0.62,0.44,1.04,1.02,1.25,1.76l9.75,34.28
		c0.24,0.85,0.46,1.76,0.65,2.75c0.2,0.99,0.39,2.04,0.57,3.15c0.21-1.11,0.44-2.16,0.69-3.15c0.25-0.99,0.52-1.91,0.81-2.75
		l11.25-34.28c0.21-0.61,0.63-1.16,1.25-1.66c0.62-0.5,1.38-0.75,2.28-0.75h3.13c0.92,0,1.69,0.22,2.3,0.65s1.03,1.02,1.27,1.76
		l11.17,34.28c0.58,1.69,1.08,3.57,1.51,5.63c0.19-1.03,0.38-2.02,0.58-2.97c0.2-0.95,0.4-1.84,0.61-2.66l9.75-34.28
		c0.19-0.66,0.6-1.23,1.23-1.7c0.63-0.48,1.4-0.71,2.3-0.71h8.36l-17.79,57.3h-9.63l-12.52-39.15c-0.16-0.5-0.32-1.04-0.49-1.62
		c-0.17-0.58-0.34-1.2-0.5-1.86c-0.16,0.66-0.32,1.28-0.5,1.86c-0.17,0.58-0.34,1.12-0.49,1.62L155.5,57.31h-9.63L128.08,0.01z"/>
	<path class="st0" d="M226.19,48.52h22.94v8.8h-33.6V0.01h10.66V48.52z"/>
</g>
<path class="st0" d="M56.62,47.56v5.24c0,1.84-1.46,4.1-4.47,4.1H8.04c1.63-0.42,4.1-1.05,6.99-4.81c2.84-3.7,5.65-4.52,8.96-4.52
	H56.62z"/>
<path class="st0" d="M56.62,37.81H30.79c-4.89,0-8.24,2.07-8.94,2.68c-3.68,3.18-3.14,7.11-10.63,7.11H0v-9.42h16.38
	c3.08,0,6.15-1.38,8.6-4.83c2.45-3.45,5.84-4.65,11.24-4.65h20.4V37.81z"/>
<path class="st0" d="M0,10.13V5c0-1.84,1.46-4.1,4.47-4.1h42.29c-1.63,0.42-4.46,1-6.47,4.02c-2.59,3.88-4.08,5.21-9.17,5.21H0z"/>
<path class="st0" d="M0,19.61h25.3c5.37,0,8.39-3.24,8.98-3.96c1.76-2.13,3.64-5.46,11.13-5.65h11.22v9.16H40.24
	c-2.39,0-6.97,0.63-9.42,4.08c-2.45,3.45-3.83,5.52-10.42,5.52H0V19.61z"/>
<g>
	<path class="st0" d="M244.9,5.09c0-0.47,0.06-0.92,0.18-1.35c0.12-0.43,0.29-0.84,0.51-1.22c0.22-0.38,0.49-0.72,0.8-1.03
		c0.31-0.31,0.65-0.57,1.03-0.8s0.78-0.39,1.21-0.51c0.43-0.12,0.88-0.18,1.35-0.18c0.47,0,0.92,0.06,1.35,0.18
		c0.43,0.12,0.84,0.29,1.21,0.51c0.38,0.22,0.72,0.49,1.03,0.8c0.31,0.31,0.58,0.65,0.8,1.03c0.22,0.38,0.39,0.78,0.51,1.22
		c0.12,0.43,0.18,0.88,0.18,1.35c0,0.46-0.06,0.91-0.18,1.35c-0.12,0.43-0.29,0.84-0.51,1.21c-0.22,0.38-0.49,0.72-0.8,1.03
		c-0.31,0.31-0.65,0.57-1.03,0.8c-0.38,0.22-0.78,0.39-1.21,0.52c-0.43,0.12-0.88,0.18-1.35,0.18c-0.47,0-0.92-0.06-1.35-0.18
		c-0.43-0.12-0.83-0.29-1.21-0.52s-0.72-0.49-1.03-0.8c-0.31-0.31-0.58-0.65-0.8-1.03c-0.22-0.38-0.39-0.78-0.51-1.21
		S244.9,5.56,244.9,5.09z M245.6,5.09c0,0.41,0.05,0.81,0.15,1.19c0.1,0.38,0.25,0.74,0.44,1.07c0.19,0.33,0.42,0.63,0.68,0.9
		c0.26,0.27,0.56,0.5,0.88,0.69c0.32,0.19,0.67,0.34,1.05,0.45c0.38,0.1,0.77,0.16,1.18,0.16c0.61,0,1.19-0.12,1.72-0.35
		c0.54-0.23,1-0.55,1.4-0.95c0.4-0.4,0.71-0.87,0.94-1.41c0.23-0.54,0.34-1.12,0.34-1.74c0-0.41-0.05-0.81-0.16-1.2
		c-0.1-0.39-0.25-0.74-0.44-1.08c-0.19-0.33-0.42-0.63-0.69-0.91c-0.27-0.27-0.56-0.51-0.89-0.7c-0.32-0.19-0.68-0.34-1.05-0.45
		c-0.38-0.11-0.77-0.16-1.18-0.16c-0.61,0-1.19,0.12-1.72,0.35c-0.53,0.23-1,0.55-1.39,0.96c-0.39,0.41-0.7,0.88-0.93,1.43
		S245.6,4.47,245.6,5.09z M248.98,5.72v2.46h-1.09V1.98h2c0.8,0,1.39,0.14,1.77,0.43c0.39,0.29,0.58,0.72,0.58,1.28
		c0,0.44-0.12,0.81-0.37,1.11c-0.25,0.31-0.62,0.52-1.11,0.63c0.08,0.05,0.15,0.1,0.21,0.17c0.06,0.07,0.11,0.15,0.16,0.24
		l1.59,2.32h-1.03c-0.15,0-0.27-0.06-0.34-0.17l-1.4-2.1c-0.04-0.06-0.09-0.11-0.15-0.14c-0.06-0.03-0.15-0.05-0.27-0.05H248.98z
		 M248.98,4.93h0.81c0.26,0,0.47-0.02,0.65-0.07c0.18-0.05,0.32-0.12,0.43-0.21s0.19-0.21,0.24-0.34c0.05-0.13,0.07-0.29,0.07-0.47
		c0-0.17-0.02-0.32-0.07-0.45c-0.04-0.13-0.12-0.24-0.22-0.32c-0.1-0.08-0.23-0.15-0.39-0.19c-0.16-0.04-0.36-0.06-0.61-0.06h-0.92
		V4.93z"/>
</g>
</svg>
