<?xml version="1.0" encoding="utf-8"?>
<!-- Generator: Adobe Illustrator 26.5.1, SVG Export Plug-In . SVG Version: 6.00 Build 0)  -->
<svg version="1.1" id="Layer_1" xmlns="http://www.w3.org/2000/svg" xmlns:xlink="http://www.w3.org/1999/xlink" x="0px" y="0px"
	 viewBox="0 0 228 228" style="enable-background:new 0 0 228 228;" xml:space="preserve">
<style type="text/css">
	.st0{opacity:0.15;fill:#FFFFFF;enable-background:new    ;}
	.st1{fill:#FFFFFF;}
	.st2{fill:none;stroke:#84BD00;stroke-width:11;stroke-linecap:round;stroke-miterlimit:10;}
</style>
<path class="st0" d="M227.7,122c0.2-2.6,0.3-5.3,0.3-8C228,51,177,0,114,0S0,51,0,114c0,2.7,0.1,5.4,0.3,8H227.7z"/>
<path class="st1" d="M187.6,122c0.3-2.6,0.4-5.3,0.4-8c0-40.9-33.1-74-74-74s-74,33.1-74,74c0,2.7,0.2,5.4,0.4,8H187.6z"/>
<line class="st2" x1="114" y1="88.5" x2="114" y2="139.5"/>
<line class="st2" x1="88.5" y1="114" x2="139.5" y2="114"/>
</svg>
