<?xml version="1.0" encoding="utf-8"?>
<!-- Generator: Adobe Illustrator 26.1.0, SVG Export Plug-In . SVG Version: 6.00 Build 0)  -->
<svg version="1.1" id="Layer_1" xmlns="http://www.w3.org/2000/svg" xmlns:xlink="http://www.w3.org/1999/xlink" x="0px" y="0px"
	 viewBox="0 0 97.04 95.97" style="enable-background:new 0 0 97.04 95.97;" xml:space="preserve">
<style type="text/css">
	.st0{fill:#006098;}
</style>
<g>
	<path class="st0" d="M97.04,79.97v8.97c0,3.16-2.5,7.02-7.67,7.02h-75.6c2.79-0.72,7.02-1.79,11.97-8.25
		c4.86-6.34,9.68-7.74,15.35-7.74H97.04z"/>
	<path class="st0" d="M97.04,63.26H52.77c-8.37,0-14.13,3.55-15.33,4.59c-6.31,5.45-5.38,12.19-18.22,12.19H0V63.91h28.08
		c5.27,0,10.54-2.37,14.74-8.28c4.19-5.92,10.01-7.96,19.26-7.96h34.97V63.26z"/>
	<path class="st0" d="M0,15.82v-8.8C0,3.87,2.5,0,7.67,0h72.49c-2.79,0.72-7.64,1.72-11.08,6.89c-4.43,6.65-6.99,8.93-15.71,8.93H0z
		"/>
	<path class="st0" d="M0,32.06h43.36c9.2,0,14.37-5.55,15.38-6.78c3.01-3.66,6.24-9.36,19.08-9.68h19.22v15.71H68.96
		c-4.09,0-11.94,1.08-16.14,7c-4.2,5.91-6.56,9.47-17.86,9.47H0V32.06z"/>
</g>
</svg>
