<?xml version="1.0" encoding="utf-8"?>
<!-- Generator: Adobe Illustrator 27.0.0, SVG Export Plug-In . SVG Version: 6.00 Build 0)  -->
<svg version="1.1" id="Layer_1" xmlns="http://www.w3.org/2000/svg" xmlns:xlink="http://www.w3.org/1999/xlink" x="0px" y="0px"
	 viewBox="0 0 81 81" style="enable-background:new 0 0 81 81;" xml:space="preserve">
<style type="text/css">
	.st0{fill:none;stroke:#354422;stroke-width:0.75;stroke-linecap:round;stroke-linejoin:round;stroke-miterlimit:10;}
	
		.st1{clip-path:url(#SVGID_00000158733587881200423440000007464073706492088966_);fill:none;stroke:#E25426;stroke-width:2;stroke-linecap:round;stroke-linejoin:round;stroke-miterlimit:10;}
	.st2{fill:#354422;}
	.st3{fill:none;stroke:url(#SVGID_00000054983337221668393770000017449573632498879648_);stroke-miterlimit:10;}
	
		.st4{clip-path:url(#SVGID_00000029757712968612970740000017393413358648573073_);fill:none;stroke:#354422;stroke-width:2;stroke-linecap:round;stroke-miterlimit:10;}
	
		.st5{clip-path:url(#SVGID_00000029757712968612970740000017393413358648573073_);fill:none;stroke:#E25426;stroke-width:2;stroke-miterlimit:10;}
	
		.st6{clip-path:url(#SVGID_00000029757712968612970740000017393413358648573073_);fill:none;stroke:#E25426;stroke-width:2;stroke-linecap:round;stroke-linejoin:round;stroke-miterlimit:10;}
	
		.st7{clip-path:url(#SVGID_00000002358827573308002800000017695097613518202538_);fill:none;stroke:#E25426;stroke-width:2;stroke-linejoin:round;stroke-miterlimit:10;}
	
		.st8{clip-path:url(#SVGID_00000002358827573308002800000017695097613518202538_);fill:none;stroke:#354422;stroke-width:2;stroke-linejoin:round;stroke-miterlimit:10;}
</style>
<path class="st0" d="M209.62,172.21"/>
<g>
	<g>
		<defs>
			<rect id="SVGID_1_" x="123.79" y="-49.23" width="45.42" height="45.45"/>
		</defs>
		<clipPath id="SVGID_00000046332082463194699750000000628669230111591312_">
			<use xlink:href="#SVGID_1_"  style="overflow:visible;"/>
		</clipPath>
		
			<path style="clip-path:url(#SVGID_00000046332082463194699750000000628669230111591312_);fill:none;stroke:#E25426;stroke-width:2;stroke-linecap:round;stroke-linejoin:round;stroke-miterlimit:10;" d="
			M168.29-23.37v-6.24l-4.58-0.77c-0.45-2-1.24-3.87-2.3-5.55l2.7-3.8l-4.4-4.4l-3.81,2.7c-1.68-1.06-3.55-1.84-5.54-2.29
			l-0.76-4.59h-6.22l-0.76,4.6c-1.99,0.45-3.86,1.23-5.54,2.29l-3.81-2.7l-4.4,4.39l2.7,3.81c-1.06,1.67-1.85,3.53-2.3,5.52
			l-4.58,0.79v6.24l4.58,0.75c0.45,2,1.23,3.87,2.3,5.54l-2.7,3.8l4.4,4.4l3.81-2.7c1.68,1.06,3.54,1.84,5.54,2.29l0.76,4.6h6.22
			l0.76-4.6c2-0.45,3.86-1.23,5.54-2.29l3.81,2.7l4.39-4.4l-2.7-3.8c1.06-1.67,1.84-3.53,2.29-5.52L168.29-23.37z M139.16-37.1
			c2.08-1.45,4.61-2.29,7.34-2.29c7.12,0,12.89,5.77,12.89,12.89s-5.77,12.89-12.89,12.89c-7.12,0-12.89-5.77-12.89-12.89
			c0-2.67,0.81-5.15,2.2-7.21"/>
	</g>
	<g>
		<path class="st2" d="M141.86-33.96h1.71v8.84c0,3.51-1.72,4.59-4,4.59c-0.63,0-1.39-0.14-1.82-0.31l0.25-1.39
			c0.35,0.14,0.86,0.25,1.43,0.25c1.53,0,2.43-0.69,2.43-3.27V-33.96z"/>
		<path class="st2" d="M146.4-33.8c0.82-0.14,1.9-0.25,3.27-0.25c1.69,0,2.92,0.39,3.71,1.1c0.73,0.63,1.16,1.59,1.16,2.76
			c0,1.2-0.35,2.14-1.02,2.82c-0.9,0.96-2.37,1.45-4.04,1.45c-0.51,0-0.98-0.02-1.37-0.12v5.29h-1.71V-33.8z M148.11-27.43
			c0.37,0.1,0.84,0.14,1.41,0.14c2.06,0,3.31-1,3.31-2.82c0-1.74-1.24-2.59-3.12-2.59c-0.74,0-1.31,0.06-1.61,0.14V-27.43z"/>
	</g>
</g>
<linearGradient id="SVGID_00000154414789778615259020000017004233012231581826_" gradientUnits="userSpaceOnUse" x1="11.8622" y1="69.1378" x2="69.1378" y2="11.8622">
	<stop  offset="0" style="stop-color:#354420"/>
	<stop  offset="1" style="stop-color:#678A3D"/>
</linearGradient>
<circle style="fill:none;stroke:url(#SVGID_00000154414789778615259020000017004233012231581826_);stroke-miterlimit:10;" cx="40.5" cy="40.5" r="40"/>
<g>
	<defs>
		<rect id="SVGID_00000166633542897095701920000000172176553130875839_" x="13.32" y="22.13" width="52.35" height="36.73"/>
	</defs>
	<clipPath id="SVGID_00000147898902927827871110000005548252648433448072_">
		<use xlink:href="#SVGID_00000166633542897095701920000000172176553130875839_"  style="overflow:visible;"/>
	</clipPath>
	
		<path style="clip-path:url(#SVGID_00000147898902927827871110000005548252648433448072_);fill:none;stroke:#354422;stroke-width:2;stroke-linecap:round;stroke-miterlimit:10;" d="
		M55.23,45.95c0,1.6-1.3,2.91-2.89,2.91c-1.6,0-2.89-1.3-2.89-2.91c0-1.6,1.3-2.91,2.89-2.91C53.94,43.05,55.23,44.35,55.23,45.95z
		 M45.17,35.05c0,1.61-1.3,2.91-2.89,2.91c-1.6,0-2.89-1.3-2.89-2.91c0-1.6,1.29-2.91,2.89-2.91
		C43.87,32.14,45.17,33.44,45.17,35.05z M52.47,32.98L42.15,48.02"/>
	
		<path style="clip-path:url(#SVGID_00000147898902927827871110000005548252648433448072_);fill:none;stroke:#E25426;stroke-width:2;stroke-miterlimit:10;" d="
		M29.99,42.29c-0.15-1.41-0.12-2.84,0.08-4.25 M30.76,35.07c0.82-2.52,2.24-4.88,4.24-6.89c6.8-6.8,17.83-6.8,24.62,0
		c6.8,6.8,6.8,17.83,0,24.63c-6.8,6.8-17.82,6.8-24.62,0c-2.18-2.18-3.67-4.8-4.45-7.58"/>
	
		<path style="clip-path:url(#SVGID_00000147898902927827871110000005548252648433448072_);fill:none;stroke:#E25426;stroke-width:2;stroke-linecap:round;stroke-linejoin:round;stroke-miterlimit:10;" d="
		M16.11,38.08h-1.83 M22.36,38.08h-3.04 M20.25,49.57h-3.04 M33.52,38.08h-7.95 M27.19,31.43h-8.01 M27.78,49.57h-4.31 M34.41,44.97
		H22.06"/>
</g>
<path class="st0" d="M142.83,33.05"/>
<g>
	<g>
		<defs>
			<rect id="SVGID_00000099639789008715800580000002857499663321442975_" x="-111.02" y="6.46" width="43.05" height="50.07"/>
		</defs>
		<clipPath id="SVGID_00000007400858982489391700000016290484310490304916_">
			<use xlink:href="#SVGID_00000099639789008715800580000002857499663321442975_"  style="overflow:visible;"/>
		</clipPath>
		
			<path style="clip-path:url(#SVGID_00000007400858982489391700000016290484310490304916_);fill:none;stroke:#E25426;stroke-width:2;stroke-linejoin:round;stroke-miterlimit:10;" d="
			M-88.55,15.44l-2.42-6.5l3.26-1.46c0.91-0.41,1.96-0.07,2.52,0.82c0.49,0.78,1.38,1.15,2.22,0.92l4.8-1.28l-3.59,7.5
			 M-97.42,38.12c-2.11-10.51,8.87-22.68,8.87-22.68h6.62c0.11,0,0.22,0.05,0.29,0.14c1.18,1.35,10.73,12.68,8.75,22.54
			 M-109.62,42.93l1.39-0.59 M-110.69,40.26l3.33-1.41l5.53,15.35l-3.68,1.56 M-93.44,44.84l6.19,0.66c1.37,0.15,2.6-0.94,2.73-2.43
			c0.14-1.49-0.87-2.81-2.24-2.96l-5.28-0.56c-0.6-0.06-1.19-0.26-1.73-0.57l-0.58-0.34c-2.91-1.69-6.42-1.68-9.32,0.03l-3.13,1.64
			 M-102.74,52.33c1.57-0.95,3.38-1.36,5.17-1.17l12.21,1.78c0.23,0.03,0.47-0.03,0.66-0.17l15.47-11.67
			c0.4-0.3,0.52-0.89,0.27-1.34c-0.99-1.84-3.12-2.53-4.88-1.59l-10.96,5.89"/>
		
			<path style="clip-path:url(#SVGID_00000007400858982489391700000016290484310490304916_);fill:none;stroke:#354422;stroke-width:2;stroke-linejoin:round;stroke-miterlimit:10;" d="
			M-86.78,32.51l3.52-6.84 M-90.47,25.73c1.7-3.3,5.51-4.46,8.52-2.61c3.01,1.85,4.08,6.03,2.38,9.33c-1.7,3.3-5.51,4.46-8.52,2.61
			C-91.1,33.2-92.17,29.02-90.47,25.73z"/>
	</g>
	<circle class="st2" cx="-86.97" cy="26.06" r="1.1"/>
	<circle class="st2" cx="-82.59" cy="31.54" r="1.1"/>
</g>
</svg>
