<?xml version="1.0" encoding="utf-8"?>
<!-- Generator: Adobe Illustrator 27.0.0, SVG Export Plug-In . SVG Version: 6.00 Build 0)  -->
<svg version="1.1" id="Layer_1" xmlns="http://www.w3.org/2000/svg" xmlns:xlink="http://www.w3.org/1999/xlink" x="0px" y="0px"
	 viewBox="0 0 81 81" style="enable-background:new 0 0 81 81;" xml:space="preserve">
<style type="text/css">
	.st0{fill:none;stroke:#354422;stroke-width:0.75;stroke-linecap:round;stroke-linejoin:round;stroke-miterlimit:10;}
	
		.st1{clip-path:url(#SVGID_00000149366162943697492810000003827306804499715231_);fill:none;stroke:#E25426;stroke-width:2;stroke-linecap:round;stroke-linejoin:round;stroke-miterlimit:10;}
	.st2{fill:#354422;}
	.st3{fill:none;stroke:url(#SVGID_00000055665750506312551870000008485095456373507508_);stroke-miterlimit:10;}
	
		.st4{clip-path:url(#SVGID_00000135682756617647807210000003716681818762905006_);fill:none;stroke:#354422;stroke-width:0.75;stroke-linecap:round;stroke-miterlimit:10;}
	
		.st5{clip-path:url(#SVGID_00000135682756617647807210000003716681818762905006_);fill:none;stroke:#E25426;stroke-width:0.75;stroke-miterlimit:10;}
	
		.st6{clip-path:url(#SVGID_00000135682756617647807210000003716681818762905006_);fill:none;stroke:#E25426;stroke-width:0.75;stroke-linecap:round;stroke-linejoin:round;stroke-miterlimit:10;}
	
		.st7{clip-path:url(#SVGID_00000129192840980548652790000016293914324346986427_);fill:none;stroke:#E25426;stroke-width:2;stroke-linejoin:round;stroke-miterlimit:10;}
	
		.st8{clip-path:url(#SVGID_00000129192840980548652790000016293914324346986427_);fill:none;stroke:#354422;stroke-width:2;stroke-linejoin:round;stroke-miterlimit:10;}
</style>
<path class="st0" d="M209.62,172.21"/>
<g>
	<g>
		<defs>
			<rect id="SVGID_1_" x="123.79" y="-49.23" width="45.42" height="45.45"/>
		</defs>
		<clipPath id="SVGID_00000111166320546766121970000010636356316524051134_">
			<use xlink:href="#SVGID_1_"  style="overflow:visible;"/>
		</clipPath>
		
			<path style="clip-path:url(#SVGID_00000111166320546766121970000010636356316524051134_);fill:none;stroke:#E25426;stroke-width:2;stroke-linecap:round;stroke-linejoin:round;stroke-miterlimit:10;" d="
			M168.29-23.37v-6.24l-4.58-0.77c-0.45-2-1.24-3.87-2.3-5.55l2.7-3.8l-4.4-4.4l-3.81,2.7c-1.68-1.06-3.55-1.84-5.54-2.29
			l-0.76-4.59h-6.22l-0.76,4.6c-1.99,0.45-3.86,1.23-5.54,2.29l-3.81-2.7l-4.4,4.39l2.7,3.81c-1.06,1.67-1.85,3.53-2.3,5.52
			l-4.58,0.79v6.24l4.58,0.75c0.45,2,1.23,3.87,2.3,5.54l-2.7,3.8l4.4,4.4l3.81-2.7c1.68,1.06,3.54,1.84,5.54,2.29l0.76,4.6h6.22
			l0.76-4.6c2-0.45,3.86-1.23,5.54-2.29l3.81,2.7l4.39-4.4l-2.7-3.8c1.06-1.67,1.84-3.53,2.29-5.52L168.29-23.37z M139.16-37.1
			c2.08-1.45,4.61-2.29,7.34-2.29c7.12,0,12.89,5.77,12.89,12.89s-5.77,12.89-12.89,12.89c-7.12,0-12.89-5.77-12.89-12.89
			c0-2.67,0.81-5.15,2.2-7.21"/>
	</g>
	<g>
		<path class="st2" d="M141.86-33.96h1.71v8.84c0,3.51-1.72,4.59-4,4.59c-0.63,0-1.39-0.14-1.82-0.31l0.25-1.39
			c0.35,0.14,0.86,0.25,1.43,0.25c1.53,0,2.43-0.69,2.43-3.27V-33.96z"/>
		<path class="st2" d="M146.4-33.8c0.82-0.14,1.9-0.25,3.27-0.25c1.69,0,2.92,0.39,3.71,1.1c0.73,0.63,1.16,1.59,1.16,2.76
			c0,1.2-0.35,2.14-1.02,2.82c-0.9,0.96-2.37,1.45-4.04,1.45c-0.51,0-0.98-0.02-1.37-0.12v5.29h-1.71V-33.8z M148.11-27.43
			c0.37,0.1,0.84,0.14,1.41,0.14c2.06,0,3.31-1,3.31-2.82c0-1.74-1.24-2.59-3.12-2.59c-0.74,0-1.31,0.06-1.61,0.14V-27.43z"/>
	</g>
</g>
<linearGradient id="SVGID_00000085938754123277890380000010926010108346973607_" gradientUnits="userSpaceOnUse" x1="11.8622" y1="69.1378" x2="69.1378" y2="11.8622">
	<stop  offset="0" style="stop-color:#354420"/>
	<stop  offset="1" style="stop-color:#678A3D"/>
</linearGradient>
<circle style="fill:none;stroke:url(#SVGID_00000085938754123277890380000010926010108346973607_);stroke-miterlimit:10;" cx="40.5" cy="40.5" r="40"/>
<g>
	<defs>
		<rect id="SVGID_00000105403352638005484440000010222820851507234479_" x="-105.4" y="-4.26" width="63.56" height="44.6"/>
	</defs>
	<clipPath id="SVGID_00000142142088156079395000000004321447746465993139_">
		<use xlink:href="#SVGID_00000105403352638005484440000010222820851507234479_"  style="overflow:visible;"/>
	</clipPath>
	
		<path style="clip-path:url(#SVGID_00000142142088156079395000000004321447746465993139_);fill:none;stroke:#354422;stroke-width:0.75;stroke-linecap:round;stroke-miterlimit:10;" d="
		M-54.52,24.66c0,1.95-1.57,3.53-3.51,3.53c-1.94,0-3.51-1.58-3.51-3.53s1.57-3.53,3.51-3.53C-56.09,21.13-54.52,22.71-54.52,24.66z
		 M-66.74,11.42c0,1.95-1.57,3.53-3.51,3.53c-1.94,0-3.51-1.58-3.51-3.53c0-1.95,1.57-3.53,3.51-3.53
		C-68.31,7.9-66.74,9.48-66.74,11.42z M-57.87,8.91l-12.54,18.27"/>
	
		<path style="clip-path:url(#SVGID_00000142142088156079395000000004321447746465993139_);fill:none;stroke:#E25426;stroke-width:0.75;stroke-miterlimit:10;" d="
		M-85.17,20.22c-0.18-1.72-0.14-3.45,0.1-5.16 M-84.23,11.46c1-3.06,2.71-5.93,5.14-8.36c8.25-8.26,21.64-8.26,29.89,0
		c8.26,8.26,8.26,21.64,0,29.9c-8.25,8.26-21.64,8.25-29.89,0c-2.65-2.65-4.45-5.83-5.4-9.2"/>
	
		<path style="clip-path:url(#SVGID_00000142142088156079395000000004321447746465993139_);fill:none;stroke:#E25426;stroke-width:0.75;stroke-linecap:round;stroke-linejoin:round;stroke-miterlimit:10;" d="
		M-102.02,15.1h-2.22 M-94.43,15.1h-3.69 M-96.99,29.05h-3.69 M-80.88,15.1h-9.65 M-88.56,7.03h-9.73 M-87.85,29.05h-5.23
		 M-79.8,23.46h-14.99"/>
</g>
<path class="st0" d="M142.83,33.05"/>
<g>
	<g>
		<defs>
			<rect id="SVGID_00000041281746379922070620000016790681673699155355_" x="18.98" y="15.46" width="43.05" height="50.07"/>
		</defs>
		<clipPath id="SVGID_00000028305362068246911000000015404562655774485639_">
			<use xlink:href="#SVGID_00000041281746379922070620000016790681673699155355_"  style="overflow:visible;"/>
		</clipPath>
		
			<path style="clip-path:url(#SVGID_00000028305362068246911000000015404562655774485639_);fill:none;stroke:#E25426;stroke-width:2;stroke-linejoin:round;stroke-miterlimit:10;" d="
			M41.45,24.44l-2.42-6.5l3.26-1.46c0.91-0.41,1.96-0.07,2.52,0.82c0.49,0.78,1.38,1.15,2.22,0.92l4.8-1.28l-3.59,7.5 M32.58,47.12
			c-2.11-10.51,8.87-22.68,8.87-22.68h6.62c0.11,0,0.22,0.05,0.29,0.14c1.18,1.35,10.73,12.68,8.75,22.54 M20.38,51.93l1.39-0.59
			 M19.31,49.26l3.33-1.41l5.53,15.35l-3.68,1.56 M36.56,53.84l6.19,0.66c1.37,0.15,2.6-0.94,2.73-2.43
			c0.14-1.49-0.87-2.81-2.24-2.96l-5.28-0.56c-0.6-0.06-1.19-0.26-1.73-0.57l-0.58-0.34c-2.91-1.69-6.42-1.68-9.32,0.03l-3.13,1.64
			 M27.26,61.33c1.57-0.95,3.38-1.36,5.17-1.17l12.21,1.78c0.23,0.03,0.47-0.03,0.66-0.17l15.47-11.67c0.4-0.3,0.52-0.89,0.27-1.34
			c-0.99-1.84-3.12-2.53-4.88-1.59l-10.96,5.89"/>
		
			<path style="clip-path:url(#SVGID_00000028305362068246911000000015404562655774485639_);fill:none;stroke:#354422;stroke-width:2;stroke-linejoin:round;stroke-miterlimit:10;" d="
			M43.22,41.51l3.52-6.84 M39.53,34.73c1.7-3.3,5.51-4.46,8.52-2.61c3.01,1.85,4.08,6.03,2.38,9.33c-1.7,3.3-5.51,4.46-8.52,2.61
			C38.9,42.2,37.83,38.02,39.53,34.73z"/>
	</g>
	<circle class="st2" cx="43.03" cy="35.06" r="1.1"/>
	<circle class="st2" cx="47.41" cy="40.54" r="1.1"/>
</g>
</svg>
