<?xml version="1.0" encoding="utf-8"?>
<!-- Generator: Adobe Illustrator 26.5.1, SVG Export Plug-In . SVG Version: 6.00 Build 0)  -->
<svg version="1.1" id="Layer_1" xmlns="http://www.w3.org/2000/svg" xmlns:xlink="http://www.w3.org/1999/xlink" x="0px" y="0px"
	 viewBox="0 0 50 50" style="enable-background:new 0 0 50 50;" xml:space="preserve">
<style type="text/css">
	
		.st0{clip-path:url(#SVGID_00000174578455777512249960000007246525909326089141_);fill:none;stroke:#354422;stroke-width:2;stroke-linecap:round;stroke-linejoin:round;}
	
		.st1{clip-path:url(#SVGID_00000174578455777512249960000007246525909326089141_);fill:none;stroke:#E45525;stroke-width:2;stroke-linecap:round;stroke-linejoin:round;}
	.st2{fill:none;stroke:#354422;stroke-width:2;stroke-linecap:round;stroke-linejoin:round;stroke-miterlimit:10;}
	.st3{fill:none;stroke:#354422;stroke-width:2;stroke-linecap:round;}
	.st4{fill:none;}
	.st5{fill:none;stroke:#E45525;stroke-width:2;stroke-linecap:round;stroke-miterlimit:10;}
	
		.st6{clip-path:url(#SVGID_00000075151590625223204350000002626623695238884536_);fill:none;stroke:#364521;stroke-width:2;stroke-linejoin:round;stroke-miterlimit:10;}
	.st7{fill:none;stroke:#E35426;stroke-width:2;stroke-linejoin:round;stroke-miterlimit:10;}
</style>
<g>
	<defs>
		<rect id="SVGID_1_" x="92.82" y="-4.65" width="34.5" height="46.12"/>
	</defs>
	<clipPath id="SVGID_00000050662927240033318540000016375151426414107296_">
		<use xlink:href="#SVGID_1_"  style="overflow:visible;"/>
	</clipPath>
	
		<path style="clip-path:url(#SVGID_00000050662927240033318540000016375151426414107296_);fill:none;stroke:#354422;stroke-width:2;stroke-linecap:round;stroke-linejoin:round;" d="
		M98.89,15.75V7.78c0-6.36,5-11.51,11.18-11.51c6.17,0,11.17,5.16,11.17,11.51v7.97 M121.24,40.55H98.89
		c-2.85,0-5.16-2.38-5.16-5.31V21.06c0-2.93,2.31-5.31,5.16-5.31h22.35c2.85,0,5.16,2.38,5.16,5.31v14.17
		C126.4,38.17,124.09,40.55,121.24,40.55z"/>
	
		<path style="clip-path:url(#SVGID_00000050662927240033318540000016375151426414107296_);fill:none;stroke:#E45525;stroke-width:2;stroke-linecap:round;stroke-linejoin:round;" d="
		M110.07,33.37v-3.35 M112.39,27.5c0,1.39-1.04,2.52-2.32,2.52c-1.28,0-2.32-1.13-2.32-2.52c0-1.39,1.04-2.52,2.32-2.52
		C111.35,24.98,112.39,26.11,112.39,27.5z"/>
</g>
<g>
	<line class="st2" x1="-60.42" y1="17.97" x2="-60.42" y2="19.58"/>
	<path class="st3" d="M-53.57,13.56V9l3.2,0c0.39,0,0.58-0.3,0.65-0.47c0.16-0.37,0.1-0.84-0.13-1.06l-6.46-6.19
		c-0.45-0.43-1.18-0.43-1.63,0l-6.43,6.19c-0.25,0.24-0.33,0.7-0.17,1.06C-64.41,8.83-64.13,9-63.76,9l3.32,0v5.25"/>
	<rect x="-69.91" y="0.22" class="st4" width="35.1" height="44.87"/>
	<path class="st2" d="M-50.03,30.43v2.54 M-50.03,35.68v1.42 M-41.07,32.52v1.55"/>
	<path class="st3" d="M-40.89,29.15V22.6l4.34,0c0.53,0,0.79-0.4,0.89-0.64c0.22-0.51,0.14-1.14-0.18-1.45l-8.78-8.42
		c-0.61-0.59-1.61-0.59-2.22,0l-8.74,8.42c-0.34,0.33-0.44,0.95-0.23,1.44c0.18,0.42,0.56,0.65,1.07,0.65l4.52,0v4.45"/>
	<path class="st5" d="M-69.18,27.51c0-1.41,1.19-2.56,2.65-2.56s2.65,1.15,2.65,2.56c0,1.41-1.19,2.56-2.65,2.56
		S-69.18,28.92-69.18,27.51z M-59.96,37.11c0-1.41,1.19-2.56,2.65-2.56c1.46,0,2.65,1.15,2.65,2.56c0,1.41-1.19,2.56-2.65,2.56
		C-58.77,39.66-59.96,38.52-59.96,37.11z M-66.65,38.93l9.46-13.25"/>
	<path class="st2" d="M-45.86,43.18v1.18 M-45.86,36.59v3.72 M-45.86,26.25v7.46"/>
	<rect x="-69.91" y="0.22" class="st4" width="35.1" height="44.87"/>
</g>
<g>
	<g>
		<defs>
			<rect id="SVGID_00000103226297367264322510000002227952890043459218_" x="2.3" y="2.3" width="45.41" height="45.41"/>
		</defs>
		<clipPath id="SVGID_00000099622071182168280280000000001726786564388741_">
			<use xlink:href="#SVGID_00000103226297367264322510000002227952890043459218_"  style="overflow:visible;"/>
		</clipPath>
		
			<path style="clip-path:url(#SVGID_00000099622071182168280280000000001726786564388741_);fill:none;stroke:#364521;stroke-width:2;stroke-linejoin:round;stroke-miterlimit:10;" d="
			M8.44,24.94c0-9.14,7.41-16.56,16.56-16.56s16.56,7.41,16.56,16.56c0,9.15-7.41,16.56-16.56,16.56S8.44,34.08,8.44,24.94z
			 M22.75,45.09c-9.37-1.04-16.82-8.47-17.88-17.83 M4.85,22.75c1.01-9.42,8.48-16.91,17.9-17.95 M27.07,4.78
			c9.5,0.96,17.06,8.49,18.08,17.98 M45.14,27.25c-1.06,9.37-8.51,16.8-17.88,17.83 M8.92,24.94H2.3 M47.71,24.94h-6.63 M25,41.02
			v6.69 M25,2.3v5.76"/>
	</g>
	<path class="st7" d="M16.78,27.87v3.93 M20.07,26.16v5.64 M23.36,24.4v7.4 M29.93,24.73v7.07 M26.64,26.65v5.15 M33.22,23.35v8.45
		 M33.22,21.57V18.2h-3.38 M33.22,18.2l-5.99,5.97l-4.51-4.5l-5.95,5.93"/>
</g>
</svg>
