<?xml version="1.0" encoding="utf-8"?>
<!-- Generator: Adobe Illustrator 26.5.1, SVG Export Plug-In . SVG Version: 6.00 Build 0)  -->
<svg version="1.1" id="Layer_1" xmlns="http://www.w3.org/2000/svg" xmlns:xlink="http://www.w3.org/1999/xlink" x="0px" y="0px"
	 viewBox="0 0 101 148.47" style="enable-background:new 0 0 101 148.47;" xml:space="preserve">
<style type="text/css">
	.st0{fill-rule:evenodd;clip-rule:evenodd;fill:#0C436A;stroke:#FFFFFF;stroke-miterlimit:10;}
	.st1{opacity:0.16;}
	.st2{fill-rule:evenodd;clip-rule:evenodd;fill:#FFFFFF;stroke:#FFFFFF;stroke-miterlimit:10;}
	.st3{fill:#FFFFFF;}
	.st4{fill:#C3924D;}
	.st5{fill-rule:evenodd;clip-rule:evenodd;fill:#FFFFFF;}
	.st6{fill-rule:evenodd;clip-rule:evenodd;fill:#C3924D;stroke:#FFFFFF;stroke-miterlimit:10;}
</style>
<path class="st0" d="M100.5,22.01v100.32c-16.22,11-38.76,22.98-50,25.62c-11.38-2.8-33.88-14.67-50-25.58V22.05L100.5,22.01z"/>
<g class="st1">
	<path class="st2" d="M73.03,11.29c-0.12-0.06-0.24-0.12-0.37-0.18v128.01c0.12-0.06,0.24-0.12,0.37-0.18V11.29z"/>
	<path class="st2" d="M81.54,15.68c-0.12-0.07-0.24-0.13-0.37-0.2v119.25c0.12-0.07,0.24-0.13,0.37-0.2V15.68z"/>
	<path class="st2" d="M79.41,14.54c-0.12-0.06-0.24-0.13-0.37-0.19v121.52c0.12-0.06,0.24-0.13,0.37-0.19V14.54z"/>
	<path class="st2" d="M85.79,18.01c-0.12-0.07-0.24-0.14-0.37-0.2v114.59c0.12-0.07,0.24-0.14,0.37-0.21V18.01z"/>
	<path class="st2" d="M75.16,12.35c-0.12-0.06-0.24-0.12-0.37-0.18v125.9c0.12-0.06,0.24-0.12,0.37-0.18V12.35z"/>
	<path class="st2" d="M77.28,13.43c-0.12-0.06-0.24-0.13-0.37-0.19v123.73c0.12-0.06,0.24-0.13,0.37-0.19V13.43z"/>
	<path class="st2" d="M83.67,16.83c-0.12-0.07-0.24-0.13-0.37-0.2v116.94c0.12-0.07,0.24-0.13,0.37-0.2V16.83z"/>
	<path class="st2" d="M94.3,22.96c-0.12-0.07-0.24-0.15-0.37-0.22v104.69c0.12-0.07,0.24-0.15,0.37-0.22V22.96z"/>
	<path class="st2" d="M96.43,24.27c-0.12-0.08-0.24-0.15-0.37-0.23v102.09c0.12-0.08,0.24-0.15,0.37-0.23V24.27z"/>
	<path class="st2" d="M90.05,20.44c-0.12-0.07-0.24-0.14-0.37-0.21v109.74c0.12-0.07,0.24-0.14,0.37-0.21V20.44z"/>
	<path class="st2" d="M92.18,21.69c-0.12-0.07-0.24-0.14-0.37-0.22v107.24c0.12-0.07,0.24-0.15,0.37-0.22V21.69z"/>
	<path class="st2" d="M87.92,19.21c-0.12-0.07-0.24-0.14-0.37-0.21v112.19c0.12-0.07,0.24-0.14,0.37-0.21V19.21z"/>
	<path class="st2" d="M53.88,3.2c-0.12-0.04-0.24-0.07-0.37-0.11v144.04c0.12-0.04,0.24-0.07,0.37-0.11V3.2z"/>
	<path class="st2" d="M56.01,3.92c-0.12-0.04-0.25-0.09-0.37-0.13v142.65c0.12-0.04,0.24-0.08,0.37-0.13V3.92z"/>
	<path class="st2" d="M58.14,4.69c-0.12-0.05-0.24-0.09-0.37-0.14v141.13c0.12-0.05,0.24-0.09,0.37-0.14V4.69z"/>
	<path class="st2" d="M51.39,147.73c0.12-0.03,0.24-0.06,0.37-0.09V2.57c-0.12-0.03-0.25-0.07-0.37-0.1V147.73z"/>
	<path class="st2" d="M98.56,25.61c-0.12-0.08-0.24-0.15-0.37-0.23v99.42c0.12-0.08,0.25-0.16,0.37-0.23V25.61z"/>
	<path class="st2" d="M100.32,123.43c0.06-0.04,0.12-0.08,0.18-0.12V26.85c-0.06-0.04-0.12-0.08-0.18-0.12V123.43z"/>
	<path class="st2" d="M68.77,9.24c-0.12-0.06-0.24-0.11-0.37-0.17v132.09c0.12-0.06,0.24-0.11,0.37-0.17V9.24z"/>
	<path class="st2" d="M66.65,8.26c-0.12-0.06-0.24-0.11-0.37-0.17v134.04c0.12-0.06,0.24-0.11,0.37-0.17V8.26z"/>
	<path class="st2" d="M70.9,10.25c-0.12-0.06-0.25-0.12-0.37-0.18v130.08c0.12-0.06,0.24-0.12,0.37-0.18V10.25z"/>
	<path class="st2" d="M62.39,6.4c-0.12-0.05-0.24-0.1-0.37-0.15v137.75c0.12-0.05,0.24-0.1,0.37-0.15V6.4z"/>
	<path class="st2" d="M64.52,7.31c-0.12-0.05-0.25-0.11-0.37-0.16v135.93c0.12-0.05,0.24-0.11,0.37-0.16V7.31z"/>
	<path class="st2" d="M60.26,5.52c-0.12-0.05-0.25-0.1-0.37-0.15v139.48c0.12-0.05,0.24-0.1,0.37-0.15V5.52z"/>
	<path class="st2" d="M49.63,2.46c-0.12,0.03-0.24,0.06-0.37,0.09v145.07c0.12,0.03,0.25,0.06,0.37,0.1V2.46z"/>
	<path class="st2" d="M32.61,9.03c-0.12,0.06-0.24,0.11-0.37,0.17v131.76c0.12,0.06,0.24,0.11,0.37,0.17V9.03z"/>
	<path class="st2" d="M0.69,26.76c-0.06,0.04-0.13,0.08-0.19,0.12v96.46c0.06,0.04,0.13,0.08,0.19,0.12V26.76z"/>
	<path class="st2" d="M34.73,8.05c-0.12,0.06-0.24,0.11-0.37,0.17v133.73c0.12,0.06,0.24,0.11,0.37,0.17V8.05z"/>
	<path class="st2" d="M30.48,10.04c-0.12,0.06-0.24,0.12-0.37,0.18v129.74c0.12,0.06,0.25,0.12,0.37,0.18V10.04z"/>
	<path class="st2" d="M28.35,11.07c-0.12,0.06-0.24,0.12-0.37,0.18v127.67c0.12,0.06,0.24,0.12,0.37,0.18V11.07z"/>
	<path class="st2" d="M47.5,3.06c-0.12,0.04-0.24,0.07-0.37,0.11V147c0.12,0.04,0.24,0.07,0.37,0.11V3.06z"/>
	<path class="st2" d="M26.22,12.13c-0.12,0.06-0.24,0.12-0.37,0.18v125.54c0.12,0.06,0.24,0.12,0.37,0.18V12.13z"/>
	<path class="st2" d="M45.37,3.75C45.25,3.79,45.13,3.84,45,3.88v142.41c0.12,0.04,0.25,0.09,0.37,0.13V3.75z"/>
	<path class="st2" d="M41.12,5.33c-0.12,0.05-0.24,0.1-0.37,0.15v139.2c0.12,0.05,0.25,0.1,0.37,0.15V5.33z"/>
	<path class="st2" d="M38.99,6.2c-0.12,0.05-0.24,0.1-0.37,0.15v137.46c0.12,0.05,0.24,0.1,0.37,0.15V6.2z"/>
	<path class="st2" d="M43.24,4.51C43.12,4.56,43,4.6,42.88,4.65v140.86c0.12,0.05,0.24,0.09,0.37,0.14V4.51z"/>
	<path class="st2" d="M36.86,7.11c-0.12,0.05-0.24,0.11-0.37,0.16v135.62c0.12,0.05,0.25,0.11,0.37,0.16V7.11z"/>
	<path class="st2" d="M7.08,22.76c-0.12,0.07-0.24,0.15-0.37,0.22v104.27c0.12,0.07,0.24,0.15,0.37,0.22V22.76z"/>
	<path class="st2" d="M11.33,20.23c-0.12,0.07-0.24,0.14-0.37,0.21v109.33c0.12,0.07,0.24,0.14,0.37,0.21V20.23z"/>
	<path class="st2" d="M9.2,21.48c-0.12,0.07-0.24,0.15-0.37,0.22v106.82c0.12,0.07,0.24,0.14,0.37,0.22V21.48z"/>
	<path class="st2" d="M4.95,24.06c-0.12,0.08-0.24,0.15-0.37,0.23v101.65c0.12,0.08,0.24,0.15,0.37,0.23V24.06z"/>
	<path class="st2" d="M24.1,13.22c-0.12,0.06-0.24,0.13-0.37,0.19v123.37c0.12,0.06,0.24,0.13,0.37,0.19V13.22z"/>
	<path class="st2" d="M2.82,25.4c-0.12,0.08-0.25,0.16-0.37,0.23v98.97c0.12,0.08,0.24,0.15,0.37,0.23V25.4z"/>
	<path class="st2" d="M19.84,15.46c-0.12,0.07-0.24,0.13-0.37,0.2v118.87c0.12,0.07,0.24,0.13,0.37,0.2V15.46z"/>
	<path class="st2" d="M21.97,14.33c-0.12,0.06-0.24,0.13-0.37,0.19v121.14c0.12,0.06,0.24,0.13,0.37,0.19V14.33z"/>
	<path class="st2" d="M13.46,19c-0.12,0.07-0.24,0.14-0.37,0.21V131c0.12,0.07,0.24,0.14,0.37,0.21V19z"/>
	<path class="st2" d="M15.59,17.8c-0.12,0.07-0.24,0.14-0.37,0.21v114.2c0.12,0.07,0.24,0.14,0.37,0.2V17.8z"/>
	<path class="st2" d="M17.71,16.62c-0.12,0.07-0.24,0.13-0.37,0.2v116.56c0.12,0.07,0.24,0.13,0.37,0.2V16.62z"/>
</g>
<g>
	<path class="st3" d="M30.52,49.29h-5.25v-3.72h15.01v3.72h-5.33v15.86h-4.43V49.29z"/>
	<path class="st3" d="M47.06,45.57v7.52h7.27v-7.52h4.41v19.58h-4.41v-8.19h-7.27v8.19h-4.43V45.57H47.06z"/>
	<path class="st3" d="M74.22,56.87h-7.19v4.65h8.03v3.63H62.6V45.57h12.06v3.63h-7.62v4.07h7.19V56.87z"/>
	<path class="st4" d="M21.71,93.17V73.59h5.16l4.06,7.18c1.16,2.06,2.32,4.5,3.19,6.71h0.09c-0.29-2.59-0.38-5.23-0.38-8.16v-5.72
		h4.06v19.58h-4.64l-4.17-7.55c-1.16-2.09-2.43-4.62-3.39-6.91l-0.09,0.03c0.12,2.59,0.17,5.34,0.17,8.54v5.9H21.71z"/>
	<path class="st4" d="M53.32,84.89h-7.19v4.65h8.03v3.63H41.7V73.59h12.06v3.63h-7.62v4.07h7.19V84.89z"/>
	<path class="st4" d="M60.54,93.17L55.9,73.59h4.72l1.48,8.08c0.44,2.32,0.84,4.85,1.16,6.83h0.06c0.32-2.12,0.78-4.47,1.28-6.88
		l1.65-8.02h4.69l1.56,8.25c0.44,2.29,0.75,4.39,1.04,6.57h0.06c0.29-2.18,0.72-4.47,1.13-6.8l1.59-8.02h4.49l-5.04,19.58H71
		l-1.65-8.42c-0.38-1.98-0.7-3.81-0.93-6.04h-0.06c-0.35,2.21-0.67,4.07-1.13,6.04l-1.85,8.42H60.54z"/>
	<path class="st3" d="M22.14,121.18v-19.58h5.16l4.06,7.17c1.16,2.06,2.32,4.5,3.19,6.71h0.09c-0.29-2.59-0.38-5.23-0.38-8.16v-5.72
		h4.06v19.58h-4.64l-4.17-7.55c-1.16-2.09-2.43-4.62-3.39-6.91l-0.09,0.03c0.12,2.59,0.17,5.34,0.17,8.54v5.9H22.14z"/>
	<path class="st3" d="M45.3,121.18l-4.64-19.58h4.72l1.48,8.08c0.43,2.32,0.84,4.85,1.16,6.83h0.06c0.32-2.12,0.78-4.47,1.27-6.88
		l1.65-8.02h4.69l1.57,8.25c0.43,2.29,0.75,4.39,1.04,6.57h0.06c0.29-2.18,0.72-4.47,1.13-6.8l1.59-8.02h4.49l-5.04,19.58h-4.78
		l-1.65-8.42c-0.38-1.98-0.7-3.81-0.93-6.04h-0.06c-0.35,2.21-0.67,4.07-1.13,6.04l-1.85,8.42H45.3z"/>
	<path class="st3" d="M67.87,101.61h4.43v15.86h7.77v3.72h-12.2V101.61z"/>
</g>
<g>
	<polygon class="st5" points="67.52,36.8 53.75,36.27 53.75,37.56 67.52,36.8 	"/>
	<polygon class="st5" points="50.5,33.67 50.5,33.67 51.36,35.53 53.39,35.77 51.89,37.17 52.29,39.18 50.5,38.18 48.71,39.18 
		49.11,37.16 47.61,35.77 49.65,35.53 50.5,33.67 	"/>
	<polygon class="st5" points="33.48,36.8 33.48,36.8 47.25,36.27 47.25,37.56 33.48,36.8 	"/>
</g>
<g>
	<polygon class="st5" points="71.16,131.68 54.45,131.04 54.45,132.6 71.16,131.68 	"/>
	<polygon class="st5" points="50.5,127.88 50.5,127.88 51.55,130.15 54.01,130.44 52.19,132.14 52.67,134.57 50.49,133.36 
		48.33,134.57 48.81,132.12 46.99,130.44 49.46,130.14 50.5,127.88 	"/>
	<polygon class="st5" points="29.84,131.68 29.84,131.68 46.55,131.04 46.55,132.6 29.84,131.68 	"/>
</g>
<g>
	<path class="st3" d="M84.69,104.76c0,1.7-1.32,3.01-3.02,3.01c-1.7,0-3.04-1.31-3.04-3.01c0-1.66,1.34-2.97,3.04-2.97
		C83.36,101.79,84.69,103.1,84.69,104.76z M79.28,104.76c0,1.38,1.02,2.47,2.4,2.47c1.34,0,2.33-1.08,2.33-2.45
		c0-1.36-0.99-2.47-2.35-2.47C80.31,102.32,79.28,103.42,79.28,104.76z M81.13,106.41h-0.58v-3.12c0.32-0.06,0.65-0.09,1.08-0.09
		c0.52,0,0.78,0.09,0.99,0.24c0.19,0.13,0.32,0.37,0.32,0.65c0,0.39-0.28,0.64-0.62,0.75v0.04c0.28,0.11,0.43,0.35,0.52,0.75
		c0.09,0.49,0.15,0.67,0.22,0.78h-0.6c-0.09-0.11-0.17-0.39-0.24-0.82c-0.07-0.34-0.28-0.49-0.73-0.49h-0.37V106.41z M81.13,104.65
		h0.39c0.43,0,0.8-0.13,0.8-0.5c0-0.3-0.19-0.5-0.75-0.5c-0.22,0-0.35,0.02-0.45,0.04V104.65z"/>
</g>
<path class="st6" d="M100.5,27.2H0.5V3.67c0-1.75,1.42-3.17,3.17-3.17h93.67c1.75,0,3.17,1.42,3.17,3.17V27.2z"/>
<g>
	<path class="st3" d="M15.23,17.48l-0.85,2.81h-1.86l3.17-9.91h2.3l3.21,9.91h-1.94l-0.9-2.81H15.23z M18.06,16.11l-0.78-2.44
		c-0.19-0.6-0.35-1.28-0.5-1.85h-0.03c-0.15,0.57-0.29,1.26-0.47,1.85l-0.76,2.44H18.06z"/>
	<path class="st3" d="M22.53,18.32c0.59,0.34,1.47,0.63,2.39,0.63c1.16,0,1.81-0.54,1.81-1.35c0-0.75-0.5-1.19-1.76-1.65
		c-1.63-0.59-2.67-1.46-2.67-2.88c0-1.62,1.35-2.85,3.49-2.85c1.07,0,1.86,0.24,2.38,0.5l-0.44,1.46c-0.35-0.19-1.04-0.47-1.97-0.47
		c-1.14,0-1.64,0.62-1.64,1.19c0,0.76,0.57,1.12,1.89,1.63c1.72,0.65,2.55,1.52,2.55,2.94c0,1.59-1.2,2.97-3.76,2.97
		c-1.04,0-2.13-0.29-2.67-0.62L22.53,18.32z"/>
	<path class="st3" d="M30.19,10.37h1.79v4.56h0.04c0.23-0.38,0.48-0.74,0.72-1.07l2.58-3.49h2.23l-3.4,4.22l3.63,5.69h-2.11
		l-2.8-4.54l-0.88,1.06v3.49h-1.79V10.37z"/>
	<path class="st3" d="M43.75,17.48l-0.85,2.81h-1.86l3.17-9.91h2.3l3.21,9.91h-1.94l-0.9-2.81H43.75z M46.58,16.11l-0.78-2.44
		c-0.19-0.6-0.35-1.28-0.5-1.85h-0.03c-0.15,0.57-0.29,1.26-0.47,1.85l-0.76,2.44H46.58z"/>
	<path class="st3" d="M51.1,10.51c0.57-0.12,1.61-0.21,2.63-0.21c1.34,0,2.16,0.16,2.83,0.63c0.62,0.37,1.03,1.01,1.03,1.85
		c0,0.91-0.57,1.75-1.64,2.15v0.03c1.04,0.26,2,1.09,2,2.46c0,0.88-0.38,1.57-0.95,2.04c-0.71,0.62-1.86,0.93-3.67,0.93
		c-1,0-1.76-0.07-2.22-0.13V10.51z M52.89,14.42h0.92c1.25,0,1.95-0.59,1.95-1.43c0-0.93-0.7-1.35-1.85-1.35
		c-0.53,0-0.84,0.03-1.03,0.07V14.42z M52.89,18.98c0.23,0.03,0.54,0.04,0.95,0.04c1.16,0,2.19-0.44,2.19-1.66
		c0-1.15-1-1.62-2.25-1.62h-0.9V18.98z"/>
	<path class="st3" d="M68.33,15.23c0,3.32-2.01,5.22-4.74,5.22c-2.79,0-4.55-2.13-4.55-5.05c0-3.04,1.91-5.19,4.7-5.19
		C66.63,10.21,68.33,12.4,68.33,15.23z M60.95,15.38c0,2.02,1.01,3.62,2.74,3.62c1.75,0,2.73-1.62,2.73-3.69
		c0-1.87-0.92-3.63-2.73-3.63C61.9,11.67,60.95,13.33,60.95,15.38z"/>
	<path class="st3" d="M71.67,10.37v5.78c0,1.94,0.81,2.84,2.03,2.84c1.31,0,2.08-0.9,2.08-2.84v-5.78h1.81v5.66
		c0,3.06-1.57,4.41-3.95,4.41c-2.29,0-3.77-1.28-3.77-4.4v-5.68H71.67z"/>
	<path class="st3" d="M81.55,11.89h-2.82v-1.52h7.47v1.52h-2.85v8.4h-1.8V11.89z"/>
</g>
</svg>
