<?xml version="1.0" encoding="UTF-8"?>
<svg id="Layer_1" xmlns="http://www.w3.org/2000/svg" version="1.1" viewBox="0 0 255.06 85.38">
  <!-- Generator: Adobe Illustrator 29.2.1, SVG Export Plug-In . SVG Version: 2.1.0 Build 116)  -->
  <defs>
    <style>
      .st0 {
        fill: #5b6770;
      }

      .st1 {
        fill: #006098;
      }

      .st2 {
        fill: #5b6670;
      }
    </style>
  </defs>
  <g>
    <g>
      <path class="st2" d="M81.04.07c.32.04.6.12.85.24.25.12.5.29.73.52.24.22.5.52.79.89l30.08,38.32c-.11-.92-.18-1.83-.22-2.71-.04-.88-.06-1.71-.06-2.48V.01h9.39v57.3h-5.51c-.85,0-1.55-.13-2.1-.4-.55-.26-1.1-.74-1.62-1.43l-29.96-38.16c.08.85.14,1.68.18,2.52s.06,1.59.06,2.28v35.19h-9.39V.01h5.59c.48,0,.87.02,1.19.06Z"/>
      <path class="st2" d="M128.08.01h8.96c.92,0,1.7.22,2.32.65.62.44,1.04,1.02,1.25,1.76l9.75,34.28c.24.85.46,1.76.65,2.75.2.99.39,2.04.57,3.15.21-1.11.44-2.16.69-3.15.25-.99.52-1.91.81-2.75l11.25-34.28c.21-.61.63-1.16,1.25-1.66.62-.5,1.38-.75,2.28-.75h3.13c.92,0,1.69.22,2.3.65s1.03,1.02,1.27,1.76l11.17,34.28c.58,1.69,1.08,3.57,1.51,5.63.19-1.03.38-2.02.58-2.97.2-.95.4-1.84.61-2.66l9.75-34.28c.19-.66.6-1.23,1.23-1.7.63-.48,1.4-.71,2.3-.71h8.36l-17.79,57.3h-9.63l-12.52-39.15c-.16-.5-.32-1.04-.49-1.62-.17-.58-.34-1.2-.5-1.86-.16.66-.32,1.28-.5,1.86-.17.58-.34,1.12-.49,1.62l-12.64,39.15h-9.63L128.08.01Z"/>
      <path class="st2" d="M226.19,48.52h22.94v8.8h-33.6V.01h10.66v48.5Z"/>
    </g>
    <path class="st1" d="M56.62,47.56v5.24c0,1.84-1.46,4.1-4.47,4.1H8.04c1.63-.42,4.1-1.05,6.99-4.81,2.84-3.7,5.65-4.52,8.96-4.52h32.64Z"/>
    <path class="st1" d="M56.62,37.81h-25.83c-4.89,0-8.24,2.07-8.94,2.68-3.68,3.18-3.14,7.11-10.63,7.11H0v-9.42h16.38c3.08,0,6.15-1.38,8.6-4.83,2.45-3.45,5.84-4.65,11.24-4.65h20.4v9.1Z"/>
    <path class="st1" d="M0,10.13v-5.13C0,3.16,1.46.9,4.47.9h42.29c-1.63.42-4.46,1-6.47,4.02-2.59,3.88-4.08,5.21-9.17,5.21H0Z"/>
    <path class="st1" d="M0,19.61h25.3c5.37,0,8.39-3.24,8.98-3.96,1.76-2.13,3.64-5.46,11.13-5.65h11.22v9.16h-16.38c-2.39,0-6.97.63-9.42,4.08-2.45,3.45-3.83,5.52-10.42,5.52H0v-9.17Z"/>
    <path class="st2" d="M244.9,5.09c0-.47.06-.92.18-1.35.12-.43.29-.84.51-1.22.22-.38.49-.72.8-1.03.31-.31.65-.57,1.03-.8s.78-.39,1.21-.51c.43-.12.88-.18,1.35-.18s.92.06,1.35.18c.43.12.84.29,1.21.51s.72.49,1.03.8c.31.31.58.65.8,1.03.22.38.39.78.51,1.22.12.43.18.88.18,1.35s-.06.91-.18,1.35-.29.84-.51,1.21c-.22.38-.49.72-.8,1.03-.31.31-.65.57-1.03.8s-.78.39-1.21.52c-.43.12-.88.18-1.35.18s-.92-.06-1.35-.18-.83-.29-1.21-.52-.72-.49-1.03-.8c-.31-.31-.58-.65-.8-1.03-.22-.38-.39-.78-.51-1.21s-.18-.88-.18-1.35ZM245.6,5.09c0,.41.05.81.15,1.19.1.38.25.74.44,1.07.19.33.42.63.68.9.26.27.56.5.88.69.32.19.67.34,1.05.45s.77.16,1.18.16c.61,0,1.19-.12,1.72-.35.54-.23,1-.55,1.4-.95s.71-.87.94-1.41c.23-.54.34-1.12.34-1.74,0-.41-.05-.81-.16-1.2-.1-.39-.25-.74-.44-1.08-.19-.33-.42-.63-.69-.91-.27-.27-.56-.51-.89-.7-.32-.19-.68-.34-1.05-.45-.38-.11-.77-.16-1.18-.16-.61,0-1.19.12-1.72.35-.53.23-1,.55-1.39.96s-.7.88-.93,1.43-.34,1.13-.34,1.75ZM248.98,5.72v2.46h-1.09V1.98h2c.8,0,1.39.14,1.77.43.39.29.58.72.58,1.28,0,.44-.12.81-.37,1.11-.25.31-.62.52-1.11.63.08.05.15.1.21.17.06.07.11.15.16.24l1.59,2.32h-1.03c-.15,0-.27-.06-.34-.17l-1.4-2.1c-.04-.06-.09-.11-.15-.14-.06-.03-.15-.05-.27-.05h-.56ZM248.98,4.93h.81c.26,0,.47-.02.65-.07s.32-.12.43-.21.19-.21.24-.34c.05-.13.07-.29.07-.47s-.02-.32-.07-.45c-.04-.13-.12-.24-.22-.32-.1-.08-.23-.15-.39-.19-.16-.04-.36-.06-.61-.06h-.92v2.12Z"/>
  </g>
  <g>
    <path class="st0" d="M2.89,77.56l-1.26,3.83H0l4.14-12.17h1.9l4.15,12.17h-1.68l-1.3-3.83H2.89ZM6.88,76.33l-1.19-3.5c-.27-.8-.45-1.52-.63-2.22h-.04c-.18.72-.38,1.46-.61,2.2l-1.19,3.52h3.67Z"/>
    <path class="st0" d="M15.81,69.36c.76-.13,1.75-.24,3.02-.24,1.55,0,2.69.36,3.41,1.01.67.58,1.07,1.46,1.07,2.55s-.33,1.97-.94,2.6c-.83.89-2.19,1.34-3.72,1.34-.47,0-.9-.02-1.26-.11v4.88h-1.57v-12.03ZM17.38,75.23c.34.09.78.13,1.3.13,1.9,0,3.05-.92,3.05-2.6s-1.14-2.39-2.87-2.39c-.69,0-1.21.05-1.48.13v4.73Z"/>
    <path class="st0" d="M25.08,75.37c0-1.03-.02-1.91-.07-2.73h1.39l.05,1.72h.07c.4-1.18,1.35-1.91,2.42-1.91.18,0,.31.02.45.05v1.5c-.16-.04-.33-.05-.54-.05-1.12,0-1.91.85-2.13,2.04-.04.22-.07.47-.07.74v4.66h-1.57v-6.02Z"/>
    <path class="st0" d="M38.72,76.94c0,3.23-2.24,4.64-4.35,4.64-2.37,0-4.19-1.73-4.19-4.5,0-2.93,1.91-4.64,4.34-4.64s4.21,1.82,4.21,4.5ZM31.79,77.03c0,1.91,1.1,3.36,2.66,3.36s2.66-1.43,2.66-3.4c0-1.48-.74-3.36-2.62-3.36s-2.69,1.73-2.69,3.4Z"/>
    <path class="st0" d="M40.52,79.76c.47.31,1.3.63,2.1.63,1.16,0,1.7-.58,1.7-1.3s-.45-1.17-1.63-1.61c-1.57-.56-2.31-1.43-2.31-2.47,0-1.41,1.14-2.56,3.02-2.56.88,0,1.66.25,2.15.54l-.4,1.16c-.34-.22-.98-.51-1.79-.51-.94,0-1.46.54-1.46,1.19,0,.72.52,1.05,1.66,1.48,1.52.58,2.29,1.34,2.29,2.64,0,1.54-1.19,2.62-3.27,2.62-.96,0-1.84-.24-2.46-.6l.4-1.21Z"/>
    <path class="st0" d="M47.89,75.5c0-1.12-.04-2.02-.07-2.85h1.43l.07,1.5h.04c.65-1.06,1.68-1.7,3.11-1.7,2.11,0,3.7,1.79,3.7,4.44,0,3.14-1.91,4.7-3.97,4.7-1.16,0-2.17-.51-2.69-1.37h-.04v4.75h-1.57v-9.47ZM49.46,77.83c0,.23.04.45.07.65.29,1.1,1.25,1.86,2.38,1.86,1.68,0,2.66-1.37,2.66-3.38,0-1.75-.92-3.25-2.6-3.25-1.08,0-2.1.78-2.4,1.97-.05.2-.11.43-.11.65v1.5Z"/>
    <path class="st0" d="M59.06,77.3c.04,2.15,1.41,3.04,3,3.04,1.14,0,1.82-.2,2.42-.45l.27,1.14c-.56.25-1.52.54-2.91.54-2.69,0-4.3-1.77-4.3-4.41s1.55-4.71,4.1-4.71c2.85,0,3.61,2.51,3.61,4.12,0,.33-.04.58-.05.74h-6.14ZM63.72,76.17c.02-1.01-.42-2.58-2.2-2.58-1.61,0-2.31,1.48-2.44,2.58h4.64Z"/>
    <path class="st0" d="M67.23,75.37c0-1.03-.02-1.91-.07-2.73h1.39l.05,1.72h.07c.4-1.18,1.35-1.91,2.42-1.91.18,0,.31.02.45.05v1.5c-.16-.04-.33-.05-.54-.05-1.12,0-1.91.85-2.13,2.04-.04.22-.07.47-.07.74v4.66h-1.57v-6.02Z"/>
    <path class="st0" d="M74.98,70.19c.02.54-.38.98-1.01.98-.56,0-.96-.43-.96-.98s.42-.99.99-.99.98.43.98.99ZM73.21,81.39v-8.74h1.59v8.74h-1.59Z"/>
    <path class="st0" d="M79.35,70.13v2.51h2.28v1.21h-2.28v4.71c0,1.08.31,1.7,1.19,1.7.42,0,.72-.05.92-.11l.07,1.19c-.31.13-.79.22-1.41.22-.74,0-1.34-.24-1.72-.67-.45-.47-.61-1.25-.61-2.28v-4.77h-1.35v-1.21h1.35v-2.1l1.55-.41Z"/>
    <path class="st0" d="M84.16,72.64l1.91,5.17c.2.58.42,1.26.56,1.79h.04c.16-.52.34-1.19.56-1.82l1.73-5.13h1.68l-2.38,6.23c-1.14,3-1.91,4.53-3,5.47-.78.69-1.55.96-1.95,1.03l-.4-1.34c.4-.13.92-.38,1.39-.78.43-.34.98-.96,1.34-1.77.07-.16.13-.29.13-.38s-.04-.22-.11-.42l-3.23-8.06h1.73Z"/>
    <path class="st0" d="M95.98,69.21h1.57v10.86h5.2v1.32h-6.77v-12.17Z"/>
    <path class="st0" d="M106.23,70.19c.02.54-.38.98-1.01.98-.56,0-.96-.43-.96-.98s.42-.99.99-.99.98.43.98.99ZM104.46,81.39v-8.74h1.59v8.74h-1.59Z"/>
    <path class="st0" d="M108.85,81.39v-7.53h-1.23v-1.21h1.23v-.42c0-1.23.27-2.35,1.01-3.05.6-.58,1.39-.81,2.13-.81.56,0,1.05.13,1.35.25l-.22,1.23c-.23-.11-.56-.2-1.01-.2-1.35,0-1.7,1.19-1.7,2.53v.47h2.11v1.21h-2.11v7.53h-1.57Z"/>
    <path class="st0" d="M114.61,77.3c.04,2.15,1.41,3.04,3,3.04,1.14,0,1.82-.2,2.42-.45l.27,1.14c-.56.25-1.52.54-2.91.54-2.69,0-4.3-1.77-4.3-4.41s1.55-4.71,4.1-4.71c2.85,0,3.61,2.51,3.61,4.12,0,.33-.04.58-.05.74h-6.14ZM119.27,76.17c.02-1.01-.42-2.58-2.2-2.58-1.61,0-2.31,1.48-2.44,2.58h4.64Z"/>
    <path class="st0" d="M135.93,80.84c-.7.25-2.1.67-3.74.67-1.84,0-3.36-.47-4.55-1.61-1.05-1.01-1.7-2.64-1.7-4.53.02-3.63,2.51-6.29,6.59-6.29,1.41,0,2.51.31,3.03.56l-.38,1.28c-.65-.29-1.46-.52-2.69-.52-2.96,0-4.89,1.84-4.89,4.89s1.86,4.91,4.7,4.91c1.03,0,1.73-.15,2.1-.33v-3.63h-2.48v-1.26h4.01v5.85Z"/>
    <path class="st0" d="M138.29,75.37c0-1.03-.02-1.91-.07-2.73h1.39l.05,1.72h.07c.4-1.18,1.35-1.91,2.42-1.91.18,0,.31.02.45.05v1.5c-.16-.04-.33-.05-.54-.05-1.12,0-1.91.85-2.13,2.04-.04.22-.07.47-.07.74v4.66h-1.57v-6.02Z"/>
    <path class="st0" d="M151.93,76.94c0,3.23-2.24,4.64-4.35,4.64-2.37,0-4.19-1.73-4.19-4.5,0-2.93,1.91-4.64,4.34-4.64s4.21,1.82,4.21,4.5ZM144.99,77.03c0,1.91,1.1,3.36,2.66,3.36s2.66-1.43,2.66-3.4c0-1.48-.74-3.36-2.62-3.36s-2.69,1.73-2.69,3.4Z"/>
    <path class="st0" d="M161.25,79c0,.9.02,1.7.07,2.38h-1.41l-.09-1.43h-.04c-.42.7-1.34,1.63-2.89,1.63-1.37,0-3.02-.76-3.02-3.83v-5.11h1.59v4.84c0,1.66.51,2.78,1.95,2.78,1.07,0,1.81-.74,2.1-1.45.09-.24.14-.52.14-.81v-5.36h1.59v6.36Z"/>
    <path class="st0" d="M163.9,75.5c0-1.12-.04-2.02-.07-2.85h1.43l.07,1.5h.04c.65-1.06,1.68-1.7,3.11-1.7,2.11,0,3.7,1.79,3.7,4.44,0,3.14-1.91,4.7-3.97,4.7-1.16,0-2.17-.51-2.69-1.37h-.04v4.75h-1.57v-9.47ZM165.47,77.83c0,.23.04.45.07.65.29,1.1,1.25,1.86,2.38,1.86,1.68,0,2.66-1.37,2.66-3.38,0-1.75-.92-3.25-2.6-3.25-1.08,0-2.1.78-2.4,1.97-.05.2-.11.43-.11.65v1.5Z"/>
    <path class="st0" d="M186.57,80.99c-.58.29-1.73.58-3.22.58-3.43,0-6.02-2.17-6.02-6.16s2.58-6.39,6.36-6.39c1.52,0,2.48.33,2.89.54l-.38,1.28c-.6-.29-1.44-.51-2.46-.51-2.85,0-4.75,1.82-4.75,5.02,0,2.98,1.72,4.89,4.68,4.89.96,0,1.93-.2,2.56-.51l.33,1.25Z"/>
    <path class="st0" d="M196.21,76.94c0,3.23-2.24,4.64-4.35,4.64-2.37,0-4.19-1.73-4.19-4.5,0-2.93,1.91-4.64,4.33-4.64s4.21,1.82,4.21,4.5ZM189.27,77.03c0,1.91,1.1,3.36,2.65,3.36s2.65-1.43,2.65-3.4c0-1.48-.74-3.36-2.62-3.36s-2.69,1.73-2.69,3.4Z"/>
    <path class="st0" d="M198.22,75.01c0-.9-.02-1.64-.07-2.37h1.39l.07,1.41h.05c.49-.83,1.3-1.61,2.75-1.61,1.19,0,2.09.72,2.47,1.75h.04c.27-.49.61-.87.98-1.14.52-.4,1.1-.61,1.93-.61,1.16,0,2.87.76,2.87,3.79v5.15h-1.55v-4.95c0-1.68-.61-2.69-1.9-2.69-.9,0-1.61.67-1.88,1.45-.07.22-.13.5-.13.79v5.4h-1.55v-5.24c0-1.39-.61-2.4-1.83-2.4-.99,0-1.71.79-1.97,1.59-.09.23-.13.51-.13.78v5.27h-1.55v-6.38Z"/>
    <path class="st0" d="M213.29,75.5c0-1.12-.04-2.02-.07-2.85h1.43l.07,1.5h.04c.65-1.06,1.68-1.7,3.11-1.7,2.11,0,3.7,1.79,3.7,4.44,0,3.14-1.91,4.7-3.97,4.7-1.16,0-2.17-.51-2.69-1.37h-.04v4.75h-1.57v-9.47ZM214.86,77.83c0,.23.04.45.07.65.29,1.1,1.25,1.86,2.38,1.86,1.68,0,2.66-1.37,2.66-3.38,0-1.75-.92-3.25-2.6-3.25-1.08,0-2.1.78-2.4,1.97-.05.2-.11.43-.11.65v1.5Z"/>
    <path class="st0" d="M228.41,81.39l-.13-1.1h-.05c-.49.69-1.43,1.3-2.67,1.3-1.77,0-2.67-1.25-2.67-2.51,0-2.11,1.88-3.27,5.26-3.25v-.18c0-.72-.2-2.02-1.99-2.02-.81,0-1.66.25-2.28.65l-.36-1.05c.72-.47,1.77-.78,2.87-.78,2.67,0,3.32,1.82,3.32,3.58v3.27c0,.76.04,1.5.14,2.1h-1.44ZM228.18,76.92c-1.73-.04-3.7.27-3.7,1.97,0,1.03.69,1.52,1.5,1.52,1.14,0,1.86-.72,2.11-1.46.05-.16.09-.34.09-.51v-1.52Z"/>
    <path class="st0" d="M232.28,75.01c0-.9-.02-1.64-.07-2.37h1.41l.09,1.44h.04c.43-.83,1.45-1.64,2.89-1.64,1.21,0,3.09.72,3.09,3.72v5.22h-1.59v-5.04c0-1.41-.52-2.58-2.02-2.58-1.05,0-1.86.74-2.13,1.63-.07.2-.11.47-.11.74v5.26h-1.59v-6.38Z"/>
    <path class="st0" d="M242.66,72.64l1.91,5.17c.2.58.42,1.26.56,1.79h.04c.16-.52.34-1.19.56-1.82l1.73-5.13h1.68l-2.38,6.23c-1.14,3-1.91,4.53-3,5.47-.78.69-1.55.96-1.95,1.03l-.4-1.34c.4-.13.92-.38,1.39-.78.43-.34.98-.96,1.34-1.77.07-.16.13-.29.13-.38s-.04-.22-.11-.42l-3.23-8.06h1.73Z"/>
  </g>
</svg>